# Blender v2.91.2 OBJ File: 'Trees.blend'
# www.blender.org
mtllib Agua.mtl
o pCylinder33.003_Mesh.007
v 0.134476 -0.460572 -0.134476
v 0.000000 -0.460572 -0.190178
v -0.134476 -0.460572 -0.134476
v -0.190178 -0.460572 -0.000000
v -0.134476 -0.460572 0.134476
v 0.000000 -0.460572 0.190178
v 0.134476 -0.460572 0.134476
v 0.190178 -0.460572 -0.000000
v 0.060396 0.306379 -0.060396
v 0.000000 0.306379 -0.085413
v -0.060396 0.306379 -0.060396
v -0.085413 0.306379 0.000000
v -0.060396 0.306379 0.060396
v 0.000000 0.306379 0.085413
v 0.060396 0.306379 0.060396
v 0.085413 0.306379 0.000000
v 0.000000 -0.460572 -0.000000
v 0.134476 -0.077097 -0.134476
v 0.000000 -0.077097 -0.190178
v -0.134476 -0.077097 -0.134476
v -0.190178 -0.077097 -0.000000
v -0.134476 -0.077097 0.134476
v 0.000000 -0.077097 0.190178
v 0.134476 -0.077097 0.134476
v 0.190178 -0.077097 -0.000000
v 0.154689 0.114641 -0.154689
v 0.218763 0.114641 0.000000
v 0.154689 0.114641 0.154689
v -0.000000 0.114641 0.218763
v -0.154689 0.114641 0.154689
v -0.218763 0.114641 0.000000
v -0.154689 0.114641 -0.154689
v -0.000000 0.114641 -0.218763
v 0.144763 -0.268834 -0.144763
v -0.000000 -0.268834 -0.204725
v -0.144763 -0.268834 -0.144763
v -0.204725 -0.268834 -0.000000
v -0.144763 -0.268834 0.144763
v -0.000000 -0.268834 0.204725
v 0.144763 -0.268834 0.144763
v 0.204725 -0.268834 -0.000000
v 0.060396 0.460572 -0.060396
v 0.000000 0.460572 -0.085413
v 0.000000 0.460572 0.000000
v -0.060396 0.460572 -0.060396
v -0.085413 0.460572 0.000000
v -0.060396 0.460572 0.060396
v 0.000000 0.460572 0.085413
v 0.060396 0.460572 0.060396
v 0.085413 0.460572 -0.000000
v 0.060396 0.386724 -0.060396
v 0.000000 0.386724 -0.085413
v -0.060396 0.386724 -0.060396
v -0.085413 0.386724 0.000000
v -0.060396 0.386724 0.060396
v 0.000000 0.386724 0.085413
v 0.060396 0.386724 0.060396
v 0.085413 0.386724 0.000000
v 0.082591 0.386724 -0.082591
v -0.000000 0.386724 -0.116802
v 0.000000 0.460572 -0.116802
v 0.082592 0.460572 -0.082591
v -0.082592 0.386724 -0.082591
v -0.082592 0.460572 -0.082591
v -0.116802 0.386724 0.000000
v -0.116802 0.460572 0.000000
v -0.082591 0.386724 0.082592
v -0.082591 0.460572 0.082592
v 0.000000 0.386724 0.116802
v 0.000000 0.460572 0.116802
v 0.082592 0.386724 0.082592
v 0.082592 0.460572 0.082591
v 0.116802 0.386724 0.000000
v 0.116802 0.460572 -0.000000
vt 0.142370 0.500042
vt 0.145189 0.500042
vt 0.145189 0.508521
vt 0.142370 0.508521
vt 0.148008 0.500042
vt 0.148008 0.508521
vt 0.150827 0.500042
vt 0.150827 0.508521
vt 0.153646 0.500042
vt 0.153646 0.508521
vt 0.156465 0.500042
vt 0.156465 0.508521
vt 0.159284 0.500042
vt 0.159284 0.508521
vt 0.162103 0.500042
vt 0.162103 0.508521
vt 0.164922 0.500042
vt 0.164922 0.508521
vt 0.153646 0.454895
vt 0.163613 0.459023
vt 0.153646 0.468426
vt 0.143679 0.459023
vt 0.139551 0.468990
vt 0.143679 0.478957
vt 0.153646 0.483086
vt 0.163613 0.478957
vt 0.167741 0.468990
vt 0.517542 0.861292
vt 0.500000 0.868558
vt 0.500000 0.842758
vt 0.482458 0.861292
vt 0.475192 0.843750
vt 0.482458 0.826208
vt 0.500000 0.818942
vt 0.517542 0.826208
vt 0.524808 0.843750
vt 0.142370 0.491564
vt 0.145189 0.491564
vt 0.148008 0.491564
vt 0.150827 0.491564
vt 0.153646 0.491564
vt 0.156465 0.491564
vt 0.159284 0.491564
vt 0.162103 0.491564
vt 0.164922 0.491564
vt 0.164922 0.516999
vt 0.162103 0.516999
vt 0.159284 0.516999
vt 0.156465 0.516999
vt 0.153646 0.516999
vt 0.150827 0.516999
vt 0.148008 0.516999
vt 0.145189 0.516999
vt 0.142370 0.516999
vt 0.142370 0.483086
vt 0.145189 0.483086
vt 0.148008 0.483086
vt 0.150827 0.483086
vt 0.153646 0.483086
vt 0.156465 0.483086
vt 0.159284 0.483086
vt 0.162103 0.483086
vt 0.164922 0.483086
vt 0.517542 0.861292
vt 0.500000 0.868558
vt 0.500000 0.868558
vt 0.517542 0.861292
vt 0.482458 0.861292
vt 0.482458 0.861292
vt 0.475192 0.843750
vt 0.475192 0.843750
vt 0.482458 0.826208
vt 0.482458 0.826208
vt 0.500000 0.818942
vt 0.500000 0.818942
vt 0.517542 0.826208
vt 0.517542 0.826208
vt 0.524808 0.843750
vt 0.524808 0.843750
vt 0.163613 0.540977
vt 0.153646 0.545105
vt 0.153646 0.545105
vt 0.163613 0.540977
vt 0.143679 0.540977
vt 0.143679 0.540977
vt 0.139551 0.531010
vt 0.139551 0.531010
vt 0.143679 0.521043
vt 0.143679 0.521043
vt 0.153646 0.516914
vt 0.153646 0.516914
vt 0.163613 0.521043
vt 0.163613 0.521043
vt 0.167741 0.531010
vt 0.167741 0.531010
vt 0.517542 0.861292
vt 0.500000 0.868558
vt 0.482458 0.861292
vt 0.475192 0.843750
vt 0.482458 0.826208
vt 0.500000 0.818942
vt 0.517542 0.826208
vt 0.524808 0.843750
vn 0.3824 -0.0365 -0.9233
vn 0.3771 0.1709 -0.9103
vn -0.3824 -0.0365 -0.9233
vn -0.3771 0.1709 -0.9103
vn -0.9233 -0.0365 -0.3824
vn -0.9103 0.1709 -0.3771
vn -0.9233 -0.0365 0.3824
vn -0.9233 -0.0364 0.3824
vn -0.9103 0.1709 0.3771
vn -0.3824 -0.0365 0.9233
vn -0.3771 0.1709 0.9103
vn 0.3824 -0.0364 0.9233
vn 0.3771 0.1709 0.9103
vn 0.9233 -0.0365 0.3824
vn 0.9233 -0.0364 0.3824
vn 0.9103 0.1709 0.3771
vn 0.9233 -0.0364 -0.3824
vn 0.9103 0.1709 -0.3771
vn 0.0000 -1.0000 0.0000
vn -0.0000 1.0000 0.0000
vn 0.3827 0.0000 -0.9239
vn -0.3827 0.0000 -0.9239
vn -0.9239 0.0000 -0.3827
vn -0.9239 -0.0000 0.3827
vn -0.3827 -0.0000 0.9239
vn 0.3827 -0.0000 0.9239
vn 0.9239 -0.0000 0.3827
vn 0.9239 0.0000 -0.3827
vn 0.7773 0.5406 -0.3220
vn 0.7773 0.5406 0.3220
vn 0.3220 0.5406 0.7773
vn -0.3220 0.5406 0.7773
vn -0.7773 0.5406 0.3220
vn -0.7773 0.5406 -0.3220
vn -0.3220 0.5406 -0.7773
vn 0.3220 0.5406 -0.7773
vn 0.3817 -0.0699 -0.9216
vn -0.3817 -0.0699 -0.9216
vn -0.9216 -0.0699 -0.3817
vn -0.9216 -0.0699 0.3817
vn -0.3817 -0.0699 0.9216
vn 0.3817 -0.0699 0.9216
vn 0.9216 -0.0699 0.3817
vn 0.9216 -0.0699 -0.3817
usemtl None
s 1
f 18/1/1 19/2/1 33/3/2 26/4/2
f 19/2/3 20/5/3 32/6/4 33/3/4
f 20/5/5 21/7/5 31/8/6 32/6/6
f 21/7/7 22/9/8 30/10/9 31/8/9
f 22/9/10 23/11/10 29/12/11 30/10/11
f 23/11/12 24/13/12 28/14/13 29/12/13
f 24/13/14 25/15/15 27/16/16 28/14/16
f 25/15/17 18/17/17 26/18/18 27/16/18
f 2/19/19 1/20/19 17/21/19
f 3/22/19 2/19/19 17/21/19
f 4/23/19 3/22/19 17/21/19
f 5/24/19 4/23/19 17/21/19
f 6/25/19 5/24/19 17/21/19
f 7/26/19 6/25/19 17/21/19
f 8/27/19 7/26/19 17/21/19
f 1/20/19 8/27/19 17/21/19
f 42/28/20 43/29/20 44/30/20
f 43/29/20 45/31/20 44/30/20
f 45/31/20 46/32/20 44/30/20
f 46/32/20 47/33/20 44/30/20
f 47/33/20 48/34/20 44/30/20
f 48/34/20 49/35/20 44/30/20
f 49/35/20 50/36/20 44/30/20
f 50/36/20 42/28/20 44/30/20
f 34/37/21 35/38/21 19/2/1 18/1/1
f 35/38/22 36/39/22 20/5/3 19/2/3
f 36/39/23 37/40/23 21/7/5 20/5/5
f 37/40/24 38/41/24 22/9/8 21/7/7
f 38/41/25 39/42/25 23/11/10 22/9/10
f 39/42/26 40/43/26 24/13/12 23/11/12
f 40/43/27 41/44/27 25/15/15 24/13/14
f 41/44/28 34/45/28 18/17/17 25/15/17
f 27/16/18 26/18/18 9/46/29 16/47/29
f 28/14/16 27/16/16 16/47/30 15/48/30
f 29/12/13 28/14/13 15/48/31 14/49/31
f 30/10/11 29/12/11 14/49/32 13/50/32
f 31/8/9 30/10/9 13/50/33 12/51/33
f 32/6/6 31/8/6 12/51/34 11/52/34
f 33/3/4 32/6/4 11/52/35 10/53/35
f 26/4/2 33/3/2 10/53/36 9/54/36
f 1/55/37 2/56/37 35/38/21 34/37/21
f 2/56/38 3/57/38 36/39/22 35/38/22
f 3/57/39 4/58/39 37/40/23 36/39/23
f 4/58/40 5/59/40 38/41/24 37/40/24
f 5/59/41 6/60/41 39/42/25 38/41/25
f 6/60/42 7/61/42 40/43/26 39/42/26
f 7/61/43 8/62/43 41/44/27 40/43/27
f 8/62/44 1/63/44 34/45/28 41/44/28
f 59/64/21 60/65/21 61/66/21 62/67/21
f 60/65/22 63/68/22 64/69/22 61/66/22
f 63/68/23 65/70/23 66/71/23 64/69/23
f 65/70/24 67/72/24 68/73/24 66/71/24
f 67/72/25 69/74/25 70/75/25 68/73/25
f 69/74/26 71/76/26 72/77/26 70/75/26
f 71/76/27 73/78/27 74/79/27 72/77/27
f 73/78/28 59/64/28 62/67/28 74/79/28
f 9/80/21 10/81/21 52/82/21 51/83/21
f 10/81/22 11/84/22 53/85/22 52/82/22
f 11/84/23 12/86/23 54/87/23 53/85/23
f 12/86/24 13/88/24 55/89/24 54/87/24
f 13/88/25 14/90/25 56/91/25 55/89/25
f 14/90/26 15/92/26 57/93/26 56/91/26
f 15/92/27 16/94/27 58/95/27 57/93/27
f 16/94/28 9/80/28 51/83/28 58/95/28
f 51/96/19 52/97/19 60/65/19 59/64/19
f 43/29/20 42/28/20 62/67/20 61/66/20
f 52/97/19 53/98/19 63/68/19 60/65/19
f 45/31/20 43/29/20 61/66/20 64/69/20
f 53/98/19 54/99/19 65/70/19 63/68/19
f 46/32/20 45/31/20 64/69/20 66/71/20
f 54/99/19 55/100/19 67/72/19 65/70/19
f 47/33/20 46/32/20 66/71/20 68/73/20
f 55/100/19 56/101/19 69/74/19 67/72/19
f 48/34/20 47/33/20 68/73/20 70/75/20
f 56/101/19 57/102/19 71/76/19 69/74/19
f 49/35/20 48/34/20 70/75/20 72/77/20
f 57/102/19 58/103/19 73/78/19 71/76/19
f 50/36/20 49/35/20 72/77/20 74/79/20
f 58/103/19 51/96/19 59/64/19 73/78/19
f 42/28/20 50/36/20 74/79/20 62/67/20
