# Blender v2.91.2 OBJ File: 'Trees.blend'
# www.blender.org
mtllib Leche.mtl
o pCube134_Mesh.004
v -0.145920 -0.471428 0.141402
v 0.145920 -0.471428 0.141402
v -0.145920 0.305546 0.141402
v 0.145920 0.305546 0.141402
v -0.145920 0.305546 -0.141402
v 0.145920 0.305546 -0.141402
v -0.145920 -0.471428 -0.141402
v 0.145920 -0.471428 -0.141402
v -0.145920 0.305546 0.141402
v 0.145920 0.305546 0.141402
v 0.145920 0.305546 -0.141402
v -0.145920 0.305546 -0.141402
v -0.145920 0.433714 0.010563
v 0.145920 0.433714 0.010563
v 0.145920 0.433714 -0.010562
v -0.145920 0.433714 -0.010562
v -0.145920 0.471428 0.010563
v 0.145920 0.471428 0.010563
v 0.145920 0.471428 -0.010562
v -0.145920 0.471428 -0.010562
v 0.113979 0.323275 0.082090
v 0.113979 0.323275 -0.082090
v 0.113979 0.397682 -0.006132
v 0.113979 0.397682 0.006132
v -0.113979 0.323275 0.082090
v -0.113979 0.323275 -0.082090
v -0.113979 0.397682 0.006132
v -0.113979 0.397682 -0.006132
vt 0.855180 0.476999
vt 0.868778 0.476999
vt 0.868778 0.490597
vt 0.855180 0.490597
vt 0.475153 0.800674
vt 0.519639 0.800674
vt 0.519639 0.845159
vt 0.475153 0.845159
vt 0.855180 0.504195
vt 0.868778 0.504195
vt 0.868778 0.517793
vt 0.855180 0.517793
vt 0.375000 0.750000
vt 0.625000 0.750000
vt 0.625000 1.000000
vt 0.375000 1.000000
vt 0.882376 0.476999
vt 0.882376 0.490597
vt 0.841582 0.476999
vt 0.841582 0.490597
vt 0.868778 0.490597
vt 0.855180 0.490597
vt 0.868778 0.504195
vt 0.855180 0.504195
vt 0.868778 0.490597
vt 0.855180 0.490597
vt 0.519639 0.800674
vt 0.519639 0.845159
vt 0.519639 0.845159
vt 0.519639 0.800674
vt 0.855180 0.504195
vt 0.868778 0.504195
vt 0.475153 0.845159
vt 0.475153 0.800674
vt 0.475153 0.800674
vt 0.475153 0.845159
vt 0.868778 0.490597
vt 0.855180 0.490597
vt 0.519639 0.800674
vt 0.519639 0.845159
vt 0.855180 0.504195
vt 0.868778 0.504195
vt 0.475153 0.845159
vt 0.475153 0.800674
vt 0.519639 0.800674
vt 0.519639 0.845159
vt 0.475153 0.845159
vt 0.475153 0.800674
vn 0.0000 -0.0000 1.0000
vn 0.0000 1.0000 0.0000
vn 0.0000 0.0000 -1.0000
vn 0.0000 -1.0000 -0.0000
vn 1.0000 0.0000 0.0000
vn -1.0000 0.0000 0.0000
vn -0.0639 0.0438 0.9970
vn 0.0639 0.0438 0.9970
vn 0.0646 0.3318 0.9412
vn -0.0646 0.3318 0.9412
vn 0.4827 0.8717 0.0850
vn 0.4827 0.8717 -0.0850
vn 0.0639 0.0438 -0.9970
vn -0.0639 0.0438 -0.9970
vn -0.0646 0.3318 -0.9412
vn 0.0646 0.3318 -0.9412
vn -0.4827 0.8717 -0.0850
vn -0.4827 0.8717 0.0850
vn 0.0000 0.7144 0.6998
vn 0.0000 0.7144 -0.6998
vn 0.4853 0.8743 0.0000
vn 0.6702 -0.5302 0.5194
vn 0.7483 -0.6634 0.0000
vn 0.6702 -0.5302 -0.5194
vn -0.4853 0.8743 0.0000
vn -0.6702 -0.5302 -0.5194
vn -0.7483 -0.6634 0.0000
vn -0.6702 -0.5302 0.5194
usemtl None
s 1
f 1/1/1 2/2/1 4/3/1 3/4/1
f 17/5/2 18/6/2 19/7/2 20/8/2
f 5/9/3 6/10/3 8/11/3 7/12/3
f 7/13/4 8/14/4 2/15/4 1/16/4
f 2/2/5 8/17/5 6/18/5 4/3/5
f 7/19/6 1/1/6 3/4/6 5/20/6
f 3/4/7 4/3/8 10/21/9 9/22/10
f 4/3/2 6/10/2 11/23/11 10/21/12
f 6/10/13 5/9/14 12/24/15 11/23/16
f 5/9/2 3/4/2 9/22/17 12/24/18
f 9/22/19 10/21/19 14/25/19 13/26/19
f 21/27/5 22/28/5 23/29/5 24/30/5
f 11/23/20 12/24/20 16/31/20 15/32/20
f 26/33/6 25/34/6 27/35/6 28/36/6
f 13/26/1 14/25/1 18/37/1 17/38/1
f 14/39/5 15/40/5 19/7/5 18/6/5
f 15/32/3 16/31/3 20/41/3 19/42/3
f 16/43/6 13/44/6 17/5/6 20/8/6
f 10/45/12 11/46/11 22/28/21 21/27/21
f 11/46/22 15/40/22 23/29/22 22/28/22
f 15/40/23 14/39/23 24/30/23 23/29/23
f 14/39/24 10/45/24 21/27/24 24/30/24
f 12/47/18 9/48/17 25/34/25 26/33/25
f 9/48/26 13/44/26 27/35/26 25/34/26
f 13/44/27 16/43/27 28/36/27 27/35/27
f 16/43/28 12/47/28 26/33/28 28/36/28
