# Blender v2.91.2 OBJ File: 'Trees.blend'
# www.blender.org
mtllib Platano.mtl
o pCylinder33_Mesh.001
v 0.554803 -0.278745 -0.110492
v 0.604704 -0.377326 -0.156259
v 0.654606 -0.475907 -0.110492
v 0.675276 -0.516741 -0.000000
v 0.654606 -0.475907 0.110491
v 0.604704 -0.377326 0.156259
v 0.554803 -0.278745 0.110492
v 0.534133 -0.237911 -0.000000
v -0.280867 0.557088 -0.055077
v -0.333908 0.578571 -0.077891
v -0.386950 0.600054 -0.055077
v -0.408920 0.608953 0.000000
v -0.386950 0.600054 0.055078
v -0.333908 0.578571 0.077892
v -0.280867 0.557088 0.055078
v -0.258896 0.548190 0.000000
v 0.604704 -0.377326 -0.000000
v -0.077672 -0.111631 -0.187078
v -0.211361 -0.242495 -0.264568
v -0.345050 -0.373359 -0.187078
v -0.400425 -0.427565 -0.000000
v -0.345050 -0.373359 0.187078
v -0.211361 -0.242495 0.264568
v -0.077672 -0.111631 0.187078
v -0.022296 -0.057426 -0.000000
v -0.223792 0.260731 -0.187078
v -0.146330 0.258653 0.000000
v -0.223792 0.260731 0.187078
v -0.410803 0.265748 0.264568
v -0.597813 0.270766 0.187078
v -0.675276 0.272844 0.000000
v -0.597813 0.270766 -0.187078
v -0.410803 0.265749 -0.264568
v 0.293078 -0.265658 -0.187078
v 0.294682 -0.452729 -0.264568
v 0.296287 -0.639799 -0.187078
v 0.296951 -0.717287 -0.000000
v 0.296287 -0.639800 0.187078
v 0.294682 -0.452729 0.264568
v 0.293078 -0.265658 0.187078
v 0.292414 -0.188170 -0.000000
v -0.188548 0.059711 -0.187078
v -0.362697 -0.008628 -0.264568
v -0.536846 -0.076966 -0.187078
v -0.608981 -0.105273 -0.000000
v -0.536846 -0.076967 0.187078
v -0.362697 -0.008628 0.264568
v -0.188548 0.059711 0.187078
v -0.116413 0.088017 0.000000
v 0.091999 -0.226446 -0.187078
v 0.121728 -0.154886 -0.000000
v 0.091999 -0.226446 0.187078
v 0.020225 -0.399208 0.264568
v -0.051548 -0.571970 0.187078
v -0.081277 -0.643531 -0.000000
v -0.051548 -0.571970 -0.187078
v 0.020225 -0.399208 -0.264568
v -0.182143 0.816408 -0.028436
v -0.212380 0.824700 -0.040215
v -0.242616 0.832991 -0.028436
v -0.255140 0.836425 -0.000000
v -0.242616 0.832991 0.028436
v -0.212380 0.824700 0.040214
v -0.182143 0.816409 0.028436
v -0.169619 0.812974 -0.000000
vt 0.492469 0.506841
vt 0.490445 0.506841
vt 0.490445 0.503798
vt 0.492469 0.503798
vt 0.488422 0.506841
vt 0.488422 0.503798
vt 0.486398 0.506841
vt 0.486398 0.503798
vt 0.484375 0.506841
vt 0.484375 0.503798
vt 0.482352 0.506841
vt 0.482352 0.503798
vt 0.480328 0.506841
vt 0.480328 0.503798
vt 0.478305 0.506841
vt 0.478305 0.503798
vt 0.476281 0.506841
vt 0.476281 0.503798
vt 0.484375 0.542290
vt 0.477221 0.539326
vt 0.484375 0.532577
vt 0.491529 0.539326
vt 0.494492 0.532172
vt 0.491529 0.525018
vt 0.484375 0.522055
vt 0.477221 0.525018
vt 0.474258 0.532172
vt 0.824696 0.858550
vt 0.811198 0.864141
vt 0.797700 0.858550
vt 0.792109 0.845052
vt 0.797700 0.831554
vt 0.830287 0.845052
vt 0.811198 0.825963
vt 0.824696 0.831554
vt 0.492469 0.515969
vt 0.490445 0.515969
vt 0.490445 0.512927
vt 0.492469 0.512927
vt 0.488422 0.515969
vt 0.488422 0.512927
vt 0.486398 0.515969
vt 0.486398 0.512927
vt 0.484375 0.515969
vt 0.484375 0.512927
vt 0.482352 0.515969
vt 0.482352 0.512927
vt 0.480328 0.515969
vt 0.480328 0.512927
vt 0.478305 0.515969
vt 0.478305 0.512927
vt 0.476281 0.515969
vt 0.476281 0.512927
vt 0.476281 0.497713
vt 0.478305 0.497713
vt 0.480328 0.497713
vt 0.482352 0.497713
vt 0.484375 0.497713
vt 0.486398 0.497713
vt 0.488422 0.497713
vt 0.490445 0.497713
vt 0.492469 0.497713
vt 0.492469 0.522055
vt 0.490445 0.522055
vt 0.488422 0.522055
vt 0.486398 0.522055
vt 0.484375 0.522055
vt 0.482352 0.522055
vt 0.480328 0.522055
vt 0.478305 0.522055
vt 0.476281 0.522055
vt 0.492469 0.509884
vt 0.490445 0.509884
vt 0.488422 0.509884
vt 0.486398 0.509884
vt 0.484375 0.509884
vt 0.482352 0.509884
vt 0.480328 0.509884
vt 0.478305 0.509884
vt 0.476281 0.509884
vt 0.824696 0.858550
vt 0.811198 0.864141
vt 0.797700 0.858550
vt 0.792109 0.845052
vt 0.797700 0.831554
vt 0.811198 0.825963
vt 0.824696 0.831554
vt 0.830287 0.845052
vn 0.3835 0.0672 -0.9211
vn 0.3824 0.0612 -0.9220
vn 0.3837 0.0611 -0.9214
vn -0.3835 -0.0672 -0.9211
vn -0.3879 -0.0982 -0.9165
vn -0.3818 -0.0982 -0.9190
vn -0.9127 -0.1600 -0.3761
vn -0.9047 -0.2145 -0.3680
vn -0.9029 -0.2142 -0.3727
vn -0.9127 -0.1600 0.3761
vn -0.9029 -0.2142 0.3727
vn -0.9047 -0.2145 0.3680
vn -0.3835 -0.0672 0.9211
vn -0.3818 -0.0982 0.9190
vn -0.3879 -0.0982 0.9165
vn 0.3835 0.0672 0.9211
vn 0.3837 0.0611 0.9214
vn 0.3824 0.0612 0.9220
vn 0.9127 0.1600 0.3761
vn 0.9115 0.1609 0.3786
vn 0.9136 0.1609 0.3735
vn 0.9127 0.1600 -0.3761
vn 0.9136 0.1609 -0.3734
vn 0.9115 0.1610 -0.3786
vn 0.8922 0.4516 0.0000
vn 0.2644 0.9644 -0.0000
vn 0.0745 0.3822 -0.9211
vn 0.0742 0.3820 -0.9212
vn -0.0835 -0.3817 -0.9205
vn -0.0834 -0.3837 -0.9197
vn -0.0745 -0.3822 -0.9211
vn -0.1944 -0.9064 -0.3751
vn -0.1944 -0.9070 -0.3736
vn -0.1773 -0.9095 -0.3761
vn -0.1944 -0.9070 0.3736
vn -0.1944 -0.9064 0.3751
vn -0.1773 -0.9095 0.3761
vn -0.0834 -0.3837 0.9197
vn -0.0835 -0.3817 0.9205
vn -0.0745 -0.3822 0.9211
vn 0.0741 0.3820 0.9212
vn 0.0739 0.3821 0.9211
vn 0.0745 0.3822 0.9211
vn 0.1773 0.9095 0.3761
vn 0.1773 0.9095 -0.3761
vn 0.8771 0.3347 -0.3445
vn 0.8769 0.3348 -0.3450
vn 0.8778 0.3320 -0.3454
vn 0.8769 0.3348 0.3450
vn 0.8771 0.3347 0.3445
vn 0.8778 0.3320 0.3454
vn 0.3947 0.4146 0.8199
vn 0.3835 0.4180 0.8235
vn 0.3892 0.4170 0.8213
vn -0.2534 0.5134 0.8198
vn -0.3068 0.5286 0.7915
vn -0.3566 0.5213 0.7753
vn -0.2085 0.5717 0.7935
vn -0.7173 0.5839 0.3802
vn -0.7546 0.5950 0.2767
vn -0.7492 0.5804 0.3191
vn -0.7367 0.6012 0.3096
vn -0.7546 0.5950 -0.2767
vn -0.7173 0.5839 -0.3802
vn -0.7367 0.6012 -0.3096
vn -0.7492 0.5804 -0.3191
vn -0.3068 0.5286 -0.7915
vn -0.2534 0.5134 -0.8198
vn -0.2085 0.5717 -0.7935
vn -0.3566 0.5213 -0.7753
vn 0.3835 0.4180 -0.8235
vn 0.3947 0.4146 -0.8199
vn 0.3892 0.4170 -0.8213
vn 0.2373 0.4206 -0.8756
vn 0.2370 0.4210 -0.8756
vn 0.2374 0.4203 -0.8758
vn 0.3562 -0.3153 -0.8796
vn 0.3528 -0.3081 -0.8835
vn 0.3576 -0.3236 -0.8760
vn 0.4436 -0.8214 -0.3584
vn 0.4410 -0.8156 -0.3745
vn 0.4446 -0.8278 -0.3422
vn 0.4436 -0.8214 0.3584
vn 0.4446 -0.8278 0.3422
vn 0.4410 -0.8156 0.3745
vn 0.3562 -0.3153 0.8796
vn 0.3576 -0.3236 0.8760
vn 0.3528 -0.3081 0.8835
vn 0.2373 0.4206 0.8756
vn 0.2375 0.4200 0.8759
vn 0.2369 0.4212 0.8755
vn 0.1686 0.9200 0.3537
vn 0.1688 0.9201 0.3535
vn 0.1686 0.9200 -0.3537
vn 0.3269 0.2115 -0.9211
vn -0.3269 -0.2115 -0.9211
vn -0.7779 -0.5034 -0.3761
vn -0.7779 -0.5034 0.3761
vn -0.7780 -0.5035 0.3757
vn -0.3269 -0.2115 0.9211
vn 0.3269 0.2115 0.9211
vn 0.7779 0.5034 0.3761
vn 0.7779 0.5034 -0.3761
vn 0.5193 0.7674 -0.3761
vn 0.5193 0.7674 0.3761
vn 0.2182 0.3225 0.9211
vn -0.2182 -0.3225 0.9211
vn -0.5193 -0.7674 0.3761
vn -0.5189 -0.7677 0.3761
vn -0.5193 -0.7674 -0.3761
vn -0.5189 -0.7677 -0.3760
vn -0.5189 -0.7677 -0.3761
vn -0.2182 -0.3225 -0.9211
vn 0.2182 0.3225 -0.9211
vn 0.3700 -0.0432 -0.9280
vn -0.2658 0.3622 -0.8934
vn -0.3215 0.3414 -0.8832
vn -0.2814 0.2794 -0.9180
vn -0.7601 0.5304 -0.3753
vn -0.7749 0.5008 -0.3857
vn -0.7621 0.5161 -0.3910
vn -0.7749 0.5008 0.3857
vn -0.7601 0.5304 0.3753
vn -0.7621 0.5161 0.3910
vn -0.3215 0.3414 0.8832
vn -0.2658 0.3622 0.8934
vn -0.2814 0.2794 0.9180
vn 0.3701 -0.0432 0.9280
vn 0.8683 -0.2911 0.4016
vn 0.8683 -0.2911 -0.4016
usemtl None
s 1
f 42/1/1 43/2/1 33/3/2 26/4/3
f 43/2/4 44/5/4 32/6/5 33/3/6
f 44/5/7 45/7/7 31/8/8 32/6/9
f 45/7/10 46/9/10 30/10/11 31/8/12
f 46/9/13 47/11/13 29/12/14 30/10/15
f 47/11/16 48/13/16 28/14/17 29/12/18
f 48/13/19 49/15/19 27/16/20 28/14/21
f 49/15/22 42/17/22 26/18/23 27/16/24
f 2/19/25 1/20/25 17/21/25
f 3/22/25 2/19/25 17/21/25
f 4/23/25 3/22/25 17/21/25
f 5/24/25 4/23/25 17/21/25
f 6/25/25 5/24/25 17/21/25
f 7/26/25 6/25/25 17/21/25
f 8/27/25 7/26/25 17/21/25
f 1/20/25 8/27/25 17/21/25
f 58/28/26 59/29/26 60/30/26 61/31/26
f 61/31/26 62/32/26 65/33/26 58/28/26
f 62/32/26 63/34/26 64/35/26 65/33/26
f 34/36/27 35/37/28 57/38/27 50/39/27
f 35/37/29 36/40/30 56/41/31 57/38/31
f 36/40/32 37/42/33 55/43/34 56/41/34
f 37/42/35 38/44/36 54/45/37 55/43/37
f 38/44/38 39/46/39 53/47/40 54/45/40
f 39/46/41 40/48/42 52/49/43 53/47/43
f 40/48/44 41/50/44 51/51/44 52/49/44
f 41/50/45 34/52/45 50/53/45 51/51/45
f 27/16/46 26/18/47 9/54/48 16/55/48
f 28/14/49 27/16/50 16/55/51 15/56/51
f 29/12/52 28/14/53 15/56/54 14/57/54
f 30/10/55 29/12/56 14/57/57 13/58/58
f 31/8/59 30/10/60 13/58/61 12/59/62
f 32/6/63 31/8/64 12/59/65 11/60/66
f 33/3/67 32/6/68 11/60/69 10/61/70
f 26/4/71 33/3/72 10/61/73 9/62/73
f 1/63/74 2/64/74 35/37/75 34/36/76
f 2/64/77 3/65/77 36/40/78 35/37/79
f 3/65/80 4/66/80 37/42/81 36/40/82
f 4/66/83 5/67/83 38/44/84 37/42/85
f 5/67/86 6/68/86 39/46/87 38/44/88
f 6/68/89 7/69/89 40/48/90 39/46/91
f 7/69/92 8/70/92 41/50/92 40/48/93
f 8/70/94 1/71/94 34/52/94 41/50/94
f 18/72/95 19/73/95 43/2/95 42/1/95
f 19/73/96 20/74/96 44/5/96 43/2/96
f 20/74/97 21/75/97 45/7/97 44/5/97
f 21/75/98 22/76/99 46/9/98 45/7/98
f 22/76/100 23/77/100 47/11/100 46/9/100
f 23/77/101 24/78/101 48/13/101 47/11/101
f 24/78/102 25/79/102 49/15/102 48/13/102
f 25/79/103 18/80/103 42/17/103 49/15/103
f 51/51/104 50/53/104 18/80/104 25/79/104
f 52/49/105 51/51/105 25/79/105 24/78/105
f 53/47/106 52/49/106 24/78/106 23/77/106
f 54/45/107 53/47/107 23/77/107 22/76/107
f 55/43/108 54/45/108 22/76/109 21/75/108
f 56/41/110 55/43/110 21/75/111 20/74/112
f 57/38/113 56/41/113 20/74/113 19/73/113
f 50/39/114 57/38/114 19/73/114 18/72/114
f 9/81/115 10/82/115 59/29/115 58/28/115
f 10/82/116 11/83/117 60/30/118 59/29/118
f 11/83/119 12/84/120 61/31/121 60/30/121
f 12/84/122 13/85/123 62/32/124 61/31/124
f 13/85/125 14/86/126 63/34/127 62/32/127
f 14/86/128 15/87/128 64/35/128 63/34/128
f 15/87/129 16/88/129 65/33/129 64/35/129
f 16/88/130 9/81/130 58/28/130 65/33/130
