# Blender v2.91.2 OBJ File: 'Trees.blend'
# www.blender.org
mtllib Resina3.mtl
o Cube.015_Cube.020
v -0.541672 -0.418322 0.249609
v -0.541672 0.418322 0.249609
v -0.250559 -0.418322 -0.539542
v -0.250559 0.418322 -0.539542
v 0.249419 -0.418322 0.542533
v 0.249419 0.418322 0.542533
v 0.543561 -0.418322 -0.250776
v 0.543561 0.418322 -0.250776
v -0.541740 -0.418322 -0.250788
v -0.541740 0.418322 -0.250788
v 0.543477 -0.418322 0.251083
v 0.543477 0.418322 0.251083
v 0.246990 -0.418322 -0.541663
v 0.246990 0.418322 -0.541663
v -0.249263 -0.418322 0.542878
v -0.249263 0.418322 0.542878
v 0.156103 -1.256192 -0.078749
v 0.156103 1.248610 -0.078749
v 0.156052 -1.256192 0.078859
v 0.156052 1.248610 0.078859
v -0.155446 -1.256192 0.078396
v -0.155446 1.248610 0.078396
v -0.155488 -1.256192 -0.078753
v -0.155488 1.248610 -0.078753
v -0.074089 -1.256192 -0.154403
v -0.074089 1.248610 -0.154403
v 0.072379 -1.256192 -0.155716
v 0.072379 1.248610 -0.155716
v 0.073094 -1.256192 0.155849
v 0.073094 1.248610 0.155849
v -0.073707 -1.256192 0.156063
v -0.073707 1.248610 0.156063
vt 0.514443 0.536246
vt 0.491405 0.536246
vt 0.491405 0.524726
vt 0.514443 0.524726
vt 0.514443 0.513207
vt 0.491405 0.513207
vt 0.491405 0.501688
vt 0.514443 0.501688
vt 0.514443 0.490169
vt 0.491405 0.490169
vt 0.491405 0.478650
vt 0.514443 0.478650
vt 0.514443 0.467131
vt 0.491405 0.467131
vt 0.491405 0.455611
vt 0.514443 0.455611
vt 0.514443 0.547765
vt 0.491405 0.547765
vt 0.491405 0.501688
vt 0.491405 0.490169
vt 0.514443 0.490169
vt 0.514443 0.501688
vt 0.491405 0.547765
vt 0.491405 0.536246
vt 0.514443 0.536246
vt 0.514443 0.547765
vt 0.491405 0.524726
vt 0.491405 0.513207
vt 0.514443 0.513207
vt 0.514443 0.524726
vt 0.491405 0.478650
vt 0.491405 0.467131
vt 0.514443 0.467131
vt 0.514443 0.478650
vn -0.7041 0.0000 -0.7101
vn 0.7002 0.0000 -0.7139
vn 0.7039 0.0000 0.7103
vn -0.7081 0.0000 0.7061
vn 1.0000 0.0000 0.0002
vn -1.0000 0.0000 0.0001
vn 0.0007 0.0000 1.0000
vn -0.0043 0.0000 -1.0000
vn 0.9062 0.4229 0.0002
vn 0.9077 -0.4197 0.0002
vn -0.9067 0.4218 0.0002
vn -0.9082 -0.4186 0.0002
vn -0.0048 0.4212 -0.9070
vn -0.0048 -0.4180 -0.9084
vn 0.0008 0.4222 0.9065
vn 0.0008 -0.4191 0.9079
vn 0.6276 0.4304 -0.6488
vn 0.6306 0.4313 0.6453
vn -0.6355 0.4304 0.6410
vn -0.6311 0.4304 -0.6453
vn 0.6316 -0.4281 0.6464
vn 0.6286 -0.4272 -0.6499
vn -0.6322 -0.4272 -0.6464
vn -0.6366 -0.4272 0.6421
vn 0.0000 1.0000 0.0000
vn 0.0000 -1.0000 0.0000
usemtl None
s off
f 9/1/1 10/2/1 4/3/1 3/4/1
f 13/5/2 14/6/2 8/7/2 7/8/2
f 11/9/3 12/10/3 6/11/3 5/12/3
f 15/13/4 16/14/4 2/15/4 1/16/4
f 7/8/5 8/7/5 12/10/5 11/9/5
f 1/17/6 2/18/6 10/2/6 9/1/6
f 5/12/7 6/11/7 16/14/7 15/13/7
f 3/4/8 4/3/8 14/6/8 13/5/8
f 12/10/9 8/7/9 18/19/9 20/20/9
f 7/8/10 11/9/10 19/21/10 17/22/10
f 10/2/11 2/18/11 22/23/11 24/24/11
f 1/17/12 9/1/12 23/25/12 21/26/12
f 14/6/13 4/3/13 26/27/13 28/28/13
f 3/4/14 13/5/14 27/29/14 25/30/14
f 16/14/15 6/11/15 30/31/15 32/32/15
f 5/12/16 15/13/16 31/33/16 29/34/16
f 14/6/17 28/28/17 18/19/17 8/7/17
f 6/11/18 12/10/18 20/20/18 30/31/18
f 16/14/19 32/32/19 22/23/19 2/18/19
f 4/3/20 10/2/20 24/24/20 26/27/20
f 5/12/21 29/34/21 19/21/21 11/9/21
f 13/5/22 7/8/22 17/22/22 27/29/22
f 3/4/23 25/30/23 23/25/23 9/1/23
f 15/13/24 1/17/24 21/26/24 31/33/24
f 18/19/25 28/28/25 26/27/25 24/24/25 22/23/25 32/32/25 30/31/25 20/20/25
f 19/21/26 29/34/26 31/33/26 21/26/26 23/25/26 25/30/26 27/29/26 17/22/26
