# Blender v2.91.2 OBJ File: 'Trees.blend'
# www.blender.org
mtllib Resina2.mtl
o Cube.016_Cube.021
v -0.526908 0.003882 0.242970
v -0.243719 0.003882 -0.524699
v 0.242649 0.003882 0.527920
v 0.528784 0.003882 -0.243794
v -0.526974 0.003882 -0.243806
v 0.528703 0.003882 0.244404
v 0.240286 0.003882 -0.526762
v -0.242458 0.003882 0.528256
v 0.113364 1.228814 0.000244
v 0.083214 1.228814 0.085452
v -0.000237 1.228814 0.113493
v 0.082973 1.228814 -0.084957
v -0.000635 1.228814 -0.112435
v -0.083399 1.228814 -0.084481
v -0.112949 1.228814 0.000074
v -0.083245 1.228814 0.085362
v 0.385595 0.226711 0.385933
v 0.527568 0.226711 0.000288
v 0.000027 0.226711 0.528284
v 0.385082 0.226711 -0.384519
v -0.001552 0.226711 -0.525573
v -0.384189 0.226711 -0.384835
v -0.526144 0.226711 -0.000345
v -0.384441 0.226711 0.385449
v 0.385595 -0.225775 0.385933
v 0.527568 -0.225775 0.000288
v 0.000027 -0.225775 0.528284
v 0.385082 -0.225775 -0.384519
v -0.001552 -0.225775 -0.525573
v -0.384189 -0.225775 -0.384835
v -0.526144 -0.225775 -0.000345
v -0.384441 -0.225775 0.385449
v 0.113364 -1.228548 0.000244
v 0.083214 -1.228548 0.085452
v -0.000237 -1.228548 0.113493
v 0.082973 -1.228548 -0.084957
v -0.000635 -1.228548 -0.112435
v -0.083399 -1.228548 -0.084481
v -0.112949 -1.228548 0.000074
v -0.083245 -1.228548 0.085362
vt 0.502924 0.465552
vt 0.502924 0.471101
vt 0.502924 0.476649
vt 0.502924 0.471101
vt 0.502924 0.482198
vt 0.502924 0.471101
vt 0.502924 0.482198
vt 0.502924 0.493295
vt 0.502924 0.493295
vt 0.502924 0.437809
vt 0.502924 0.437809
vt 0.502924 0.426712
vt 0.502924 0.426712
vt 0.502924 0.448906
vt 0.502924 0.448906
vt 0.502924 0.460004
vt 0.502924 0.460004
vt 0.502924 0.460004
vt 0.502924 0.460004
vt 0.502924 0.498844
vt 0.502924 0.493295
vt 0.502924 0.487747
vt 0.502924 0.432260
vt 0.502924 0.443358
vt 0.502924 0.437809
vt 0.502924 0.460004
vt 0.502924 0.454455
vt 0.502924 0.482198
vt 0.502924 0.421163
vt 0.502924 0.460004
vt 0.502924 0.448906
vt 0.502924 0.426712
vt 0.502924 0.460004
vt 0.502924 0.493295
vt 0.502924 0.482198
vt 0.502924 0.471101
vt 0.502924 0.460004
vt 0.502924 0.448906
vt 0.502924 0.437809
vt 0.502924 0.426712
vn 1.0000 0.0000 0.0002
vn 0.8758 0.3611 0.3202
vn 0.3184 0.3609 0.8765
vn -0.8761 0.3602 -0.3204
vn -0.3179 0.3601 -0.8771
vn -0.3204 0.3606 0.8760
vn -0.8767 0.3602 0.3190
vn 0.3148 0.3597 -0.8784
vn 0.8753 0.3609 -0.3219
vn 0.0007 0.0000 1.0000
vn -0.7041 0.0000 -0.7101
vn 0.7002 0.0000 -0.7139
vn 0.7039 0.0000 0.7103
vn -0.7081 0.0000 0.7061
vn -0.0043 0.0000 -1.0000
vn -1.0000 0.0000 0.0001
vn -0.3204 -0.3604 0.8761
vn 0.3185 -0.3607 0.8766
vn 0.8759 -0.3609 0.3202
vn 0.8753 -0.3607 -0.3220
vn 0.3148 -0.3595 -0.8785
vn -0.3179 -0.3599 -0.8772
vn -0.8762 -0.3600 -0.3204
vn 0.3242 0.3516 0.8782
vn 0.3254 -0.3424 0.8814
vn 0.8763 0.3579 0.3226
vn 0.8796 -0.3485 0.3238
vn 0.8750 0.3597 -0.3240
vn 0.8784 -0.3503 -0.3252
vn 0.3207 0.3527 -0.8790
vn 0.3219 -0.3435 -0.8823
vn -0.3236 0.3482 -0.8798
vn -0.3248 -0.3391 -0.8829
vn -0.8764 0.3568 -0.3236
vn -0.8797 -0.3475 -0.3248
vn -0.8776 0.3550 0.3223
vn -0.8808 -0.3457 0.3235
vn -0.3257 0.3543 0.8766
vn -0.3269 -0.3450 0.8798
vn -0.8767 -0.3600 0.3190
vn 0.0000 1.0000 0.0000
vn 0.0000 -1.0000 -0.0000
usemtl None
s off
f 4/1/1 18/2/1 6/3/1 26/4/1
f 17/5/2 18/2/2 9/6/2 10/7/2
f 17/5/3 10/7/3 11/8/3 19/9/3
f 14/10/4 22/11/4 23/12/4 15/13/4
f 22/11/5 14/10/5 13/14/5 21/15/5
f 11/8/6 16/16/6 24/17/6 19/9/6
f 23/12/7 24/17/7 16/16/7 15/13/7
f 13/14/8 12/18/8 20/19/8 21/15/8
f 18/2/9 20/19/9 12/18/9 9/6/9
f 8/20/10 27/21/10 3/22/10 19/9/10
f 5/23/11 22/11/11 2/24/11 30/25/11
f 4/1/12 28/26/12 7/27/12 20/19/12
f 3/22/13 25/28/13 6/3/13 17/5/13
f 1/29/14 32/30/14 8/20/14 24/17/14
f 7/27/15 29/31/15 2/24/15 21/15/15
f 1/29/16 23/12/16 5/23/16 31/32/16
f 40/33/17 35/34/17 27/21/17 32/30/17
f 34/35/18 25/28/18 27/21/18 35/34/18
f 34/35/19 33/36/19 26/4/19 25/28/19
f 36/37/20 28/26/20 26/4/20 33/36/20
f 36/37/21 37/38/21 29/31/21 28/26/21
f 37/38/22 38/39/22 30/25/22 29/31/22
f 38/39/23 39/40/23 31/32/23 30/25/23
f 19/9/24 3/22/24 17/5/24
f 27/21/25 25/28/25 3/22/25
f 17/5/26 6/3/26 18/2/26
f 26/4/27 6/3/27 25/28/27
f 18/2/28 4/1/28 20/19/28
f 4/1/29 26/4/29 28/26/29
f 20/19/30 7/27/30 21/15/30
f 29/31/31 7/27/31 28/26/31
f 21/15/32 2/24/32 22/11/32
f 30/25/33 2/24/33 29/31/33
f 23/12/34 22/11/34 5/23/34
f 31/32/35 5/23/35 30/25/35
f 23/12/36 1/29/36 24/17/36
f 31/32/37 32/30/37 1/29/37
f 19/9/38 24/17/38 8/20/38
f 27/21/39 8/20/39 32/30/39
f 40/33/40 32/30/40 31/32/40 39/40/40
f 10/7/41 9/6/41 16/16/41 11/8/41
f 16/16/41 9/6/41 12/18/41 15/13/41
f 12/18/41 13/14/41 14/10/41 15/13/41
f 37/38/42 36/37/42 33/36/42 38/39/42
f 34/35/42 39/40/42 38/39/42 33/36/42
f 40/33/42 39/40/42 34/35/42 35/34/42
