# Blender v2.91.2 OBJ File: 'Trees.blend'
# www.blender.org
mtllib Resina0.mtl
o Icosphere.001
v 0.000000 -0.797211 0.000000
v -0.000000 0.934284 0.000000
v -0.079691 -0.797577 0.245267
v 0.208638 -0.797577 0.151582
v 0.208638 -0.797577 -0.151582
v -0.257891 -0.797575 0.000000
v -0.079691 -0.797577 -0.245267
v -0.124419 0.416549 0.384471
v 0.327209 0.416546 0.237138
v -0.404101 0.416549 0.000478
v -0.125333 0.416549 -0.384173
v 0.326641 0.416549 -0.237914
vt 0.479022 0.520845
vt 0.482075 0.515557
vt 0.475969 0.515557
vt 0.527865 0.520845
vt 0.530917 0.515557
vt 0.524812 0.515557
vt 0.515654 0.520845
vt 0.518707 0.515557
vt 0.512601 0.515557
vt 0.503443 0.520845
vt 0.506496 0.515557
vt 0.500391 0.515557
vt 0.494285 0.494407
vt 0.500391 0.494407
vt 0.497338 0.489120
vt 0.506496 0.494407
vt 0.512601 0.494407
vt 0.509549 0.489120
vt 0.518707 0.494407
vt 0.524812 0.494407
vt 0.521759 0.489120
vt 0.469864 0.494407
vt 0.475969 0.494407
vt 0.472917 0.489120
vt 0.482075 0.494407
vt 0.488180 0.494407
vt 0.485127 0.489120
vt 0.488180 0.515557
vt 0.491233 0.520845
vt 0.494285 0.515557
vn -0.0005 -1.0000 -0.0017
vn 0.0014 -1.0000 -0.0010
vn 0.0014 -1.0000 0.0010
vn -0.0005 -1.0000 0.0017
vn 0.8455 0.5339 -0.0010
vn 0.2603 0.5339 -0.8045
vn -0.6846 0.5339 -0.4962
vn -0.6835 0.5339 0.4978
vn 0.2622 0.5339 0.8038
vn -0.8056 -0.0970 -0.5844
vn 0.3069 -0.0970 -0.9468
vn -0.0018 -1.0000 0.0000
vn 0.9953 -0.0970 -0.0007
vn 0.3082 -0.0970 0.9464
vn -0.8048 -0.0970 0.5856
usemtl None
s off
f 1/1/1 4/2/1 3/3/1
f 1/4/2 3/5/2 6/6/2
f 1/7/3 6/8/3 7/9/3
f 1/10/4 7/11/4 5/12/4
f 9/13/5 12/14/5 2/15/5
f 12/16/6 11/17/6 2/18/6
f 11/19/7 10/20/7 2/21/7
f 10/22/8 8/23/8 2/24/8
f 8/25/9 9/26/9 2/27/9
f 10/22/10 11/17/10 7/9/10 6/6/10
f 11/17/11 12/14/11 5/12/11 7/11/11
f 4/28/12 1/29/12 5/30/12
f 9/26/13 4/2/13 5/30/13 12/14/13
f 9/26/14 8/23/14 3/3/14 4/2/14
f 8/23/15 10/22/15 6/6/15 3/5/15
