# Blender v2.91.2 OBJ File: 'Trees.blend'
# www.blender.org
mtllib Roble.mtl
o Roble_Cube.022
v -2.288921 -2.650667 2.288921
v -0.334767 23.072548 0.334767
v -2.288921 -2.650667 -2.288921
v -0.334767 23.072548 -0.334767
v 2.288921 -2.650667 2.288921
v 0.334767 23.072548 0.334767
v 2.288921 -2.650667 -2.288921
v 0.334767 23.072548 -0.334767
v 0.000000 -2.650667 -3.031653
v 0.000000 23.263332 -0.443396
v 0.000000 -2.650667 3.031653
v 0.000000 23.263332 0.443396
v -3.031653 -2.650667 0.000000
v -0.443396 23.263332 0.000000
v 3.031653 -2.650667 0.000000
v 0.443396 23.263332 0.000000
v 0.000000 23.502525 0.000000
v 0.000000 -2.650667 0.000000
v -1.375226 12.390465 1.375226
v -1.375226 12.390465 -1.375226
v 1.375226 12.390465 -1.375226
v 1.375226 12.390465 1.375226
v 0.000000 12.390465 1.821472
v 0.000000 12.390465 -1.821472
v 1.821472 12.390465 0.000000
v -1.821472 12.390465 0.000000
v -1.485024 10.899035 -1.485024
v 1.485024 10.899035 -1.485024
v 1.485024 10.899035 1.485024
v 0.000000 10.899035 1.966899
v 0.000000 10.899035 -1.966899
v 1.966899 10.899035 0.000000
v -1.966899 10.899035 0.000000
v -1.485024 10.899035 1.485024
v -4.335473 16.523840 2.156363
v -4.125558 16.833950 1.481041
v -4.806851 16.752689 1.191901
v -5.071160 16.436092 1.844137
v 1.880333 16.649204 4.624156
v 1.296719 16.785263 5.129649
v 2.432074 16.588114 5.218276
v 1.801864 16.735037 5.764129
v 4.483981 16.809847 -1.922181
v 4.920059 16.770597 -1.145076
v 5.240045 16.589481 -2.407540
v 5.710940 16.547096 -1.568390
v -1.560727 16.855309 -4.038805
v -1.053415 16.702377 -4.567124
v -2.142584 16.563599 -4.461375
v -1.594767 16.398458 -5.031875
v -0.649787 16.291616 -0.014333
v 6.553536 14.853554 4.618228
v -3.741624 15.530710 8.060608
v -9.849162 15.530718 -0.286257
v -3.522073 15.530710 -8.539027
v 6.929912 14.853554 -5.266864
v 1.888652 19.891916 8.261230
v -8.161265 18.349871 4.995757
v -7.777377 17.907061 -5.571286
v 1.888652 18.099554 -8.836760
v 8.099916 20.229082 -0.287765
v -0.889039 20.312933 -0.287765
v -2.179919 16.165344 5.796719
v 4.479167 16.165344 2.510178
v 1.796183 15.376663 7.958890
v 7.913344 14.699507 -0.230227
v 4.752597 16.165344 -4.452868
v -6.753646 16.165344 0.498352
v -7.915797 15.376663 5.077667
v -3.444541 16.165344 -4.765834
v -7.884433 15.376663 -5.712906
v 2.047103 15.376663 -8.374582
v 8.669059 16.785578 2.817802
v 8.669059 16.785578 -3.393332
v -0.889039 16.785578 9.762199
v 5.018186 16.785578 7.842824
v -10.447135 16.785578 2.817802
v -6.796264 16.785578 7.842824
v -6.411036 16.785578 -7.827287
v -10.447135 16.785578 -3.393332
v 5.272225 16.785578 -7.051594
v -0.990537 16.785578 -9.286139
v 6.027242 20.341188 4.737187
v -3.530862 18.702063 7.842774
v -9.438022 18.163187 -0.287765
v -3.530862 18.702063 -8.418305
v 6.027242 20.224047 -5.312715
v 0.743634 20.741880 4.737170
v -5.163516 19.078382 2.817790
v -5.163516 19.068995 -3.393319
v 0.743634 19.530554 -5.312698
v 1.794474 21.105370 3.389100
v -2.372258 20.791136 2.189623
v -2.518630 20.784582 -2.142586
v 1.561084 20.260006 -3.620736
v 5.481723 20.636612 3.264510
v -1.116119 21.051916 5.656073
v -5.081332 21.238697 0.341953
v -1.499398 21.051916 -5.685925
v 5.245181 20.554859 -3.745245
v 0.670665 22.263376 6.201693
v 4.986194 22.833336 4.495498
v -6.646800 22.704391 2.702722
v -3.144454 22.929464 5.311914
v -3.976544 22.387709 -5.996875
v -6.831889 22.704391 -1.900844
v 4.457940 22.613403 -5.887276
v 0.292481 22.601530 -7.086795
v 7.269219 22.745550 1.863818
v 7.122821 22.483137 -2.468408
v 2.403977 23.851852 5.691978
v -4.579091 24.014141 4.065835
v -1.943643 25.983486 3.088405
v -4.904288 23.950947 -3.534616
v -3.743926 25.954342 -0.549309
v 3.237725 26.260689 2.288762
v 5.817353 24.553093 -0.329420
v 1.708253 24.305456 -5.561208
v 3.794717 25.856033 -1.929309
v -0.923318 26.187675 -3.631734
v 0.539517 20.554657 -0.077352
v 6.808961 20.639069 -0.289215
v 2.672055 21.056164 5.820261
v -4.147408 21.679409 3.770463
v -4.314805 20.914436 -3.373380
v 2.274209 21.066610 -6.105651
v 4.974710 24.404894 2.920049
v -1.467191 23.630545 5.933018
v -6.072604 23.881800 0.324698
v -2.391030 23.852776 -5.792839
v 5.216069 24.591427 -3.463779
v 0.227252 26.824154 -0.020180
vt 0.815898 0.805651
vt 0.818392 0.805651
vt 0.818392 0.818137
vt 0.815898 0.818137
vt 0.815898 0.830624
vt 0.818392 0.830624
vt 0.818392 0.843110
vt 0.815898 0.843110
vt 0.815898 0.855597
vt 0.818392 0.855597
vt 0.818392 0.868083
vt 0.815898 0.868083
vt 0.815898 0.880570
vt 0.818392 0.880570
vt 0.818392 0.893056
vt 0.815898 0.893056
vt 0.780932 0.855597
vt 0.793419 0.855597
vt 0.793419 0.868083
vt 0.780932 0.868083
vt 0.830878 0.855597
vt 0.843365 0.855597
vt 0.843365 0.868083
vt 0.830878 0.868083
vt 0.768446 0.855597
vt 0.768446 0.868083
vt 0.768446 0.843110
vt 0.780932 0.843110
vt 0.830878 0.843110
vt 0.843365 0.843110
vt 0.793419 0.843110
vt 0.815898 0.793164
vt 0.818392 0.793164
vt 0.813197 0.893056
vt 0.815898 0.893056
vt 0.813197 0.893056
vt 0.815898 0.855597
vt 0.815898 0.843110
vt 0.813197 0.830624
vt 0.813197 0.830624
vt 0.815898 0.830624
vt 0.815898 0.880570
vt 0.815898 0.868083
vt 0.813197 0.880570
vt 0.813197 0.855597
vt 0.813197 0.868083
vt 0.813197 0.843110
vt 0.813197 0.805651
vt 0.813197 0.818137
vt 0.793419 0.805651
vt 0.793419 0.818137
vt 0.793419 0.830624
vt 0.793419 0.880570
vt 0.793419 0.893056
vt 0.793419 0.793164
vt 0.813197 0.793164
vt 0.813197 0.793164
vt 0.815898 0.793164
vt 0.815898 0.805651
vt 0.813197 0.805651
vt 0.813197 0.868083
vt 0.813197 0.880570
vt 0.813197 0.843110
vt 0.813197 0.855597
vt 0.813197 0.818137
vt 0.815898 0.818137
vt 0.603200 0.140585
vt 0.599087 0.147709
vt 0.607312 0.147709
vt 0.594974 0.154833
vt 0.590861 0.147709
vt 0.586748 0.154833
vt 0.537393 0.140585
vt 0.533280 0.147709
vt 0.541506 0.147709
vt 0.553845 0.140585
vt 0.549732 0.147709
vt 0.557958 0.147709
vt 0.570296 0.140585
vt 0.566184 0.147709
vt 0.574409 0.147709
vt 0.590861 0.161957
vt 0.611425 0.154833
vt 0.603200 0.154833
vt 0.607312 0.161957
vt 0.545619 0.154833
vt 0.537393 0.154833
vt 0.541506 0.161957
vt 0.562071 0.154833
vt 0.553845 0.154833
vt 0.557958 0.161957
vt 0.578522 0.154833
vt 0.570296 0.154833
vt 0.574409 0.161957
vt 0.599087 0.161957
vt 0.615538 0.161957
vt 0.549732 0.161957
vt 0.566184 0.161957
vt 0.582635 0.161957
vt 0.603200 0.169080
vt 0.594974 0.169080
vt 0.599087 0.176204
vt 0.619651 0.169080
vt 0.611425 0.169080
vt 0.615538 0.176204
vt 0.553845 0.169080
vt 0.545619 0.169080
vt 0.549732 0.176204
vt 0.570296 0.169080
vt 0.562071 0.169080
vt 0.566184 0.176204
vt 0.578522 0.169080
vt 0.574409 0.176204
vt 0.557958 0.176204
vt 0.562071 0.183328
vt 0.541506 0.176204
vt 0.545619 0.183328
vt 0.537393 0.169080
vt 0.607312 0.176204
vt 0.611425 0.183328
vt 0.586748 0.169080
vt 0.533280 0.161957
vt 0.529168 0.154833
vt 0.582635 0.147709
vt 0.586748 0.140585
vt 0.599087 0.147709
vt 0.594974 0.154833
vt 0.603200 0.154833
vt 0.607312 0.147709
vt 0.611425 0.154833
vt 0.590861 0.147709
vt 0.586748 0.140585
vt 0.582635 0.147709
vt 0.586748 0.154833
vt 0.578522 0.154833
vt 0.533280 0.147709
vt 0.529168 0.154833
vt 0.537393 0.154833
vt 0.541506 0.147709
vt 0.545619 0.154833
vt 0.549732 0.147709
vt 0.553845 0.154833
vt 0.557958 0.147709
vt 0.562071 0.154833
vt 0.566184 0.147709
vt 0.570296 0.154833
vt 0.574409 0.147709
vt 0.582635 0.161957
vt 0.590861 0.161957
vt 0.586748 0.169080
vt 0.599087 0.161957
vt 0.607312 0.161957
vt 0.603200 0.169080
vt 0.533280 0.161957
vt 0.541506 0.161957
vt 0.537393 0.169080
vt 0.549732 0.161957
vt 0.557958 0.161957
vt 0.553845 0.169080
vt 0.566184 0.161957
vt 0.574409 0.161957
vt 0.570296 0.169080
vt 0.594974 0.169080
vt 0.611425 0.169080
vt 0.615538 0.161957
vt 0.619651 0.169080
vt 0.545619 0.169080
vt 0.562071 0.169080
vt 0.578522 0.169080
vt 0.607312 0.176204
vt 0.615538 0.176204
vt 0.611425 0.183328
vt 0.541506 0.176204
vt 0.549732 0.176204
vt 0.545619 0.183328
vt 0.557958 0.176204
vt 0.566184 0.176204
vt 0.562071 0.183328
vt 0.574409 0.176204
vt 0.599087 0.176204
vt 0.570296 0.140585
vt 0.553845 0.140585
vt 0.537393 0.140585
vt 0.603200 0.140585
vn -0.9402 0.1209 -0.3186
vn 0.3186 0.1209 -0.9402
vn 0.9402 0.1209 0.3186
vn -0.3186 0.1209 0.9402
vn 0.0000 -1.0000 -0.0000
vn -0.4754 0.7403 0.4754
vn 0.4754 0.7403 0.4754
vn 0.3186 0.1209 0.9402
vn -0.3186 0.1209 -0.9402
vn 0.4754 0.7403 -0.4754
vn -0.4754 0.7403 -0.4754
vn 0.9402 0.1209 -0.3186
vn -0.9402 0.1209 0.3186
vn 0.5552 0.2475 0.7941
vn -0.7455 0.5867 0.3163
vn 0.8499 -0.0792 -0.5210
vn -0.3099 0.6144 -0.7256
vn -0.3073 0.0924 0.9471
vn 0.9471 0.0924 0.3073
vn 0.3073 0.0924 -0.9471
vn -0.9471 0.0924 -0.3073
vn -0.9485 0.0745 -0.3078
vn 0.3078 0.0745 -0.9485
vn 0.9485 0.0745 0.3078
vn -0.3078 0.0745 0.9485
vn 0.3078 0.0745 0.9485
vn -0.3078 0.0745 -0.9485
vn 0.9485 0.0745 -0.3078
vn -0.9485 0.0745 0.3078
vn -0.2517 0.9068 0.3382
vn -0.6151 -0.1405 -0.7758
vn -0.7094 -0.4921 0.5046
vn 0.6929 0.5243 -0.4950
vn 0.1754 0.9825 -0.0619
vn 0.8819 0.1778 -0.4367
vn -0.8840 -0.0548 0.4643
vn 0.3266 -0.5704 0.7537
vn 0.2309 0.9696 -0.0806
vn 0.3882 -0.0155 0.9215
vn 0.7562 -0.5705 -0.3204
vn -0.3812 0.1256 -0.9159
vn -0.1543 0.8996 -0.4086
vn -0.4308 -0.4952 -0.7545
vn -0.8596 0.1921 0.4735
vn 0.4262 0.5175 0.7420
vn -0.0123 -0.9996 -0.0250
vn -0.4571 -0.8838 -0.1001
vn 0.0193 -0.9997 -0.0166
vn 0.0218 -0.9997 0.0137
vn -0.0010 -0.9996 0.0272
vn 0.7561 -0.6122 0.2315
vn -0.0110 -0.7959 0.6054
vn -0.6045 -0.7722 0.1957
vn -0.4250 -0.5882 -0.6881
vn 0.4796 -0.3370 -0.8102
vn 0.7664 -0.3203 0.5568
vn -0.2665 -0.5063 0.8201
vn -0.9027 -0.4302 0.0000
vn -0.2596 -0.0506 -0.9644
vn 0.7328 0.0002 -0.6804
vn 0.0739 0.9747 0.2111
vn -0.1497 0.9812 0.1221
vn -0.3020 0.9429 -0.1406
vn 0.0763 0.9322 -0.3537
vn -0.1189 0.9059 -0.4065
vn -0.1397 0.9705 -0.1965
vn -0.1125 0.9877 -0.1087
vn -0.2852 0.9447 -0.1617
vn -0.2785 0.9604 -0.0015
vn -0.2083 0.9781 -0.0015
vn -0.2228 0.9747 0.0194
vn -0.2730 0.9620 0.0066
vn -0.3187 0.9319 0.1733
vn -0.2266 0.9275 0.2973
vn 0.8277 0.4451 -0.3418
vn 0.7208 0.1802 -0.6693
vn 0.5317 0.2863 -0.7971
vn -0.0291 0.3800 -0.9245
vn -0.2588 0.0924 -0.9615
vn -0.5214 0.5950 -0.6116
vn -0.5149 0.8331 -0.2022
vn -0.8067 0.5909 0.0000
vn -0.6402 0.7574 0.1280
vn -0.4114 0.7011 0.5824
vn -0.2734 0.4659 0.8415
vn -0.1847 0.5566 0.8100
vn 0.5474 0.4570 0.7011
vn 0.7783 0.2730 0.5655
vn 0.8339 0.4392 0.3342
vn 0.3105 -0.3827 -0.8701
vn 0.3338 0.1144 -0.9357
vn 0.0105 -0.5271 -0.8497
vn -0.6736 0.4128 -0.6131
vn -0.7196 -0.2305 -0.6550
vn -0.6028 -0.7733 -0.1963
vn -0.7603 0.3419 0.5524
vn -0.7205 -0.4548 0.5235
vn -0.3535 -0.7678 0.5343
vn 0.3040 0.1802 0.9355
vn 0.2617 -0.5320 0.8053
vn 0.3394 -0.7269 0.5971
vn 0.9866 0.1631 0.0000
vn 0.9402 -0.3406 0.0000
vn 0.8102 -0.5593 -0.1753
vn -0.3523 -0.8403 0.4120
vn -0.0077 -0.9793 0.2023
vn -0.0322 -0.9855 0.1664
vn 0.1391 -0.9770 0.1615
vn 0.1540 -0.9833 0.0968
vn 0.1775 -0.9798 0.0921
vn 0.2261 -0.9679 -0.1093
vn 0.1511 -0.9799 -0.1304
vn 0.1547 -0.9739 -0.1663
vn -0.4954 -0.8658 0.0702
vn -0.4032 -0.9150 -0.0158
vn -0.0241 -0.9997 -0.0009
vn -0.0319 -0.9564 -0.2901
vn -0.0923 -0.9780 -0.1870
vn -0.2956 -0.9140 -0.2779
vn 0.2233 0.8436 -0.4884
vn 0.2369 0.8369 -0.4934
vn -0.0355 0.6908 -0.7222
vn 0.2299 0.9712 -0.0628
vn 0.5461 0.8377 -0.0082
vn 0.6778 0.7052 0.2079
vn -0.4304 0.7438 -0.5113
vn -0.4632 0.8087 -0.3626
vn -0.6920 0.6945 -0.1971
vn -0.6035 0.7682 0.2137
vn -0.5184 0.8178 0.2500
vn -0.2950 0.7114 0.6379
vn -0.0043 0.7702 0.6378
vn 0.0469 0.8099 0.5847
vn 0.4861 0.6527 0.5811
vn 0.6326 0.7486 0.1982
vn 0.8138 0.5778 -0.0625
vn 0.9811 -0.1924 -0.0215
vn 0.3374 0.6748 -0.6563
vn 0.2325 0.5344 -0.8126
vn 0.2687 -0.2480 -0.9307
vn -0.5056 0.6294 -0.5901
vn -0.7293 0.4190 -0.5408
vn -0.6764 -0.6015 -0.4250
vn -0.6219 0.7511 0.2217
vn -0.5981 0.1194 0.7925
vn -0.5038 -0.4808 0.7177
vn 0.0452 0.2602 0.9645
vn 0.3786 -0.1185 0.9179
vn 0.3265 0.2536 0.9105
vn 0.7763 -0.5319 -0.3383
vn 0.7385 -0.3296 -0.5882
vn 0.4594 -0.5501 -0.6974
vn -0.0850 -0.6123 -0.7861
vn -0.1840 -0.5335 -0.8255
vn -0.3649 -0.7909 -0.4912
vn -0.5995 -0.7986 -0.0540
vn -0.6616 -0.7494 0.0266
vn -0.4528 -0.8604 0.2339
vn -0.5371 -0.4494 0.7139
vn -0.2399 -0.0818 0.9673
vn -0.0400 -0.3607 0.9318
vn 0.6258 -0.2691 0.7321
vn 0.7375 -0.1958 0.6463
vn 0.8168 -0.4899 0.3047
vn -0.0315 -0.9480 -0.3168
vn -0.1702 -0.9777 -0.1227
vn -0.1091 -0.9927 0.0511
vn -0.1147 -0.9914 0.0629
vn -0.1677 -0.9858 0.0072
vn -0.0777 -0.9970 0.0041
vn -0.3062 -0.9345 0.1813
vn 0.0598 -0.9968 0.0533
vn 0.0328 -0.9889 0.1452
vn -0.1252 -0.9918 0.0251
vn 0.0020 -0.9998 -0.0210
vn -0.2906 -0.9358 0.1995
vn -0.0171 -0.9966 -0.0801
vn 0.0666 -0.9545 -0.2907
vn 0.6422 0.5450 0.5390
vn -0.2576 -0.2178 0.9414
vn -0.8687 0.4942 0.0349
vn -0.2461 0.3899 -0.8874
vn 0.7305 0.3990 -0.5542
vn 0.5185 0.6073 0.6020
vn -0.4502 0.3488 0.8220
vn -0.6369 0.7498 -0.1794
vn -0.0341 0.6822 -0.7304
vn 0.7663 0.6272 -0.1393
vn -0.0128 0.9675 0.2527
vn -0.2260 0.9685 0.1041
vn -0.1989 0.9740 -0.1083
vn 0.5957 0.7964 -0.1045
vn 0.1460 0.9653 -0.2166
vn -0.1085 0.9457 -0.3064
vn 0.2534 0.9601 -0.1187
vn 0.2852 0.9532 0.1008
vn 0.0969 0.9652 0.2428
vn -0.2488 0.9682 -0.0271
vn -0.2452 0.9496 -0.1953
usemtl BosqueTemplado
s off
f 26/1/1 14/2/1 4/3/1 20/4/1
f 24/5/2 10/6/2 8/7/2 21/8/2
f 25/9/3 16/10/3 6/11/3 22/12/3
f 23/13/4 12/14/4 2/15/4 19/16/4
f 18/17/5 15/18/5 5/19/5 11/20/5
f 17/21/6 14/22/6 2/23/6 12/24/6
f 16/10/7 17/21/7 12/24/7 6/11/7
f 13/25/5 18/17/5 11/20/5 1/26/5
f 22/12/8 6/11/8 12/14/8 23/13/8
f 20/4/9 4/3/9 10/6/9 24/5/9
f 3/27/5 9/28/5 18/17/5 13/25/5
f 8/7/10 10/29/10 17/21/10 16/10/10
f 10/29/11 4/30/11 14/22/11 17/21/11
f 9/28/5 7/31/5 15/18/5 18/17/5
f 21/8/12 8/7/12 16/10/12 25/9/12
f 19/32/13 2/33/13 14/2/13 26/1/13
f 34/34/14 19/16/14 36/35/14 35/36/14
f 21/8/15 25/9/15 44/37/15 43/38/15
f 24/5/16 31/39/16 50/40/16 48/41/16
f 22/12/17 23/13/17 40/42/17 39/43/17
f 30/44/18 23/13/18 19/16/18 34/34/18
f 32/45/19 25/9/19 22/12/19 29/46/19
f 31/39/20 24/5/20 21/8/20 28/47/20
f 33/48/21 26/1/21 20/4/21 27/49/21
f 13/50/22 33/48/22 27/49/22 3/51/22
f 9/52/23 31/39/23 28/47/23 7/31/23
f 15/18/24 32/45/24 29/46/24 5/19/24
f 11/53/25 30/44/25 34/34/25 1/54/25
f 5/19/26 29/46/26 30/44/26 11/53/26
f 3/51/27 27/49/27 31/39/27 9/52/27
f 7/31/28 28/47/28 32/45/28 15/18/28
f 1/55/29 34/56/29 33/48/29 13/50/29
f 35/57/30 36/58/30 37/59/30 38/60/30
f 26/1/31 33/48/31 38/60/31 37/59/31
f 33/48/32 34/56/32 35/57/32 38/60/32
f 19/32/33 26/1/33 37/59/33 36/58/33
f 41/61/34 39/43/34 40/42/34 42/62/34
f 29/46/35 22/12/35 39/43/35 41/61/35
f 23/13/36 30/44/36 42/62/36 40/42/36
f 30/44/37 29/46/37 41/61/37 42/62/37
f 45/63/38 43/38/38 44/37/38 46/64/38
f 25/9/39 32/45/39 46/64/39 44/37/39
f 32/45/40 28/47/40 45/63/40 46/64/40
f 28/47/41 21/8/41 43/38/41 45/63/41
f 49/65/42 47/66/42 48/41/42 50/40/42
f 31/39/43 27/49/43 49/65/43 50/40/43
f 27/49/44 20/4/44 47/66/44 49/65/44
f 20/4/45 24/5/45 48/41/45 47/66/45
f 51/67/46 64/68/46 63/69/46
f 52/70/47 64/71/47 66/72/47
f 51/73/48 63/74/48 68/75/48
f 51/76/49 68/77/49 70/78/49
f 51/79/50 70/80/50 67/81/50
f 52/70/51 66/72/51 73/82/51
f 53/83/52 65/84/52 75/85/52
f 54/86/53 69/87/53 77/88/53
f 55/89/54 71/90/54 79/91/54
f 56/92/55 72/93/55 81/94/55
f 52/70/56 73/82/56 76/95/56
f 53/83/57 75/85/57 78/96/57
f 54/86/58 77/88/58 80/97/58
f 55/89/59 79/91/59 82/98/59
f 56/92/60 81/94/60 74/99/60
f 57/100/61 83/101/61 88/102/61
f 58/103/62 84/104/62 89/105/62
f 59/106/63 85/107/63 90/108/63
f 60/109/64 86/110/64 91/111/64
f 87/112/65 60/109/65 91/113/65
f 91/111/66 90/114/66 62/115/66
f 91/111/67 86/110/67 90/114/67
f 86/110/68 59/106/68 90/114/68
f 90/108/69 89/116/69 62/117/69
f 90/108/70 85/107/70 89/116/70
f 85/107/71 58/118/71 89/116/71
f 89/105/72 88/119/72 62/120/72
f 89/105/73 84/104/73 88/119/73
f 84/104/74 57/100/74 88/119/74
f 74/99/75 87/112/75 61/121/75
f 74/99/76 81/94/76 87/112/76
f 81/94/77 60/109/77 87/112/77
f 82/98/78 86/110/78 60/109/78
f 82/98/79 79/91/79 86/110/79
f 79/91/80 59/106/80 86/110/80
f 80/97/81 85/107/81 59/106/81
f 80/97/82 77/88/82 85/107/82
f 77/88/83 58/118/83 85/107/83
f 78/96/84 84/104/84 58/103/84
f 78/96/85 75/85/85 84/104/85
f 75/85/86 57/100/86 84/104/86
f 76/95/87 83/101/87 57/100/87
f 76/95/88 73/82/88 83/101/88
f 73/82/89 61/121/89 83/101/89
f 81/94/90 82/98/90 60/109/90
f 81/94/91 72/93/91 82/98/91
f 72/93/92 55/89/92 82/98/92
f 79/91/93 80/97/93 59/106/93
f 79/91/94 71/90/94 80/97/94
f 71/90/95 54/86/95 80/97/95
f 77/88/96 78/122/96 58/118/96
f 77/88/97 69/87/97 78/122/97
f 69/87/98 53/123/98 78/122/98
f 75/85/99 76/95/99 57/100/99
f 75/85/100 65/84/100 76/95/100
f 65/84/101 52/70/101 76/95/101
f 73/82/102 74/99/102 61/121/102
f 73/82/103 66/72/103 74/99/103
f 66/72/104 56/92/104 74/99/104
f 67/81/105 72/93/105 56/92/105
f 67/81/106 70/80/106 72/93/106
f 70/80/107 55/89/107 72/93/107
f 70/78/108 71/90/108 55/89/108
f 70/78/109 68/77/109 71/90/109
f 68/77/110 54/86/110 71/90/110
f 68/75/111 69/87/111 54/86/111
f 68/75/112 63/74/112 69/87/112
f 63/74/113 53/123/113 69/87/113
f 66/72/114 67/124/114 56/92/114
f 66/72/115 64/71/115 67/124/115
f 64/71/116 51/125/116 67/124/116
f 63/69/117 65/84/117 53/83/117
f 63/69/118 64/68/118 65/84/118
f 64/68/119 52/70/119 65/84/119
f 119/126/120 131/127/120 118/128/120
f 120/129/121 119/126/121 118/128/121
f 120/129/122 118/128/122 130/130/122
f 119/131/123 132/132/123 116/133/123
f 117/134/124 119/131/124 116/133/124
f 117/134/125 116/133/125 127/135/125
f 120/136/126 130/137/126 114/138/126
f 115/139/127 120/136/127 114/138/127
f 115/139/128 114/138/128 129/140/128
f 115/141/129 129/140/129 112/142/129
f 113/143/130 115/141/130 112/142/130
f 113/143/131 112/142/131 128/144/131
f 113/145/132 128/144/132 111/146/132
f 116/147/133 113/145/133 111/146/133
f 116/147/134 111/146/134 127/135/134
f 117/134/135 127/135/135 109/148/135
f 110/149/136 117/134/136 109/148/136
f 110/149/137 109/148/137 122/150/137
f 118/128/138 131/127/138 107/151/138
f 108/152/139 118/128/139 107/151/139
f 108/152/140 107/151/140 126/153/140
f 114/138/141 130/137/141 105/154/141
f 106/155/142 114/138/142 105/154/142
f 106/155/143 105/154/143 125/156/143
f 112/142/144 129/140/144 103/157/144
f 104/158/145 112/142/145 103/157/145
f 104/158/146 103/157/146 124/159/146
f 111/146/147 128/144/147 101/160/147
f 102/161/148 111/146/148 101/160/148
f 102/161/149 101/160/149 123/162/149
f 110/149/150 122/150/150 100/163/150
f 107/151/151 110/149/151 100/163/151
f 107/151/152 100/163/152 126/153/152
f 108/152/153 126/153/153 99/164/153
f 105/165/154 108/152/154 99/164/154
f 105/165/155 99/164/155 125/166/155
f 106/155/156 125/156/156 98/167/156
f 103/157/157 106/155/157 98/167/157
f 103/157/158 98/167/158 124/159/158
f 104/158/159 124/159/159 97/168/159
f 101/160/160 104/158/160 97/168/160
f 101/160/161 97/168/161 123/162/161
f 102/161/162 123/162/162 96/169/162
f 109/148/163 102/161/163 96/169/163
f 109/148/164 96/169/164 122/150/164
f 99/164/165 126/153/165 95/170/165
f 94/171/166 99/164/166 95/170/166
f 94/171/167 95/170/167 121/172/167
f 98/167/168 125/156/168 94/173/168
f 93/174/169 98/167/169 94/173/169
f 93/174/170 94/173/170 121/175/170
f 97/168/171 124/159/171 93/176/171
f 92/177/172 97/168/172 93/176/172
f 92/177/173 93/176/173 121/178/173
f 96/169/174 123/162/174 92/179/174
f 123/162/175 97/168/175 92/177/175
f 124/159/176 98/167/176 93/174/176
f 125/166/177 99/164/177 94/171/177
f 126/153/178 100/163/178 95/180/178
f 127/135/179 102/161/179 109/148/179
f 128/144/180 104/158/180 101/160/180
f 129/140/181 106/155/181 103/157/181
f 130/130/182 108/152/182 105/165/182
f 131/127/183 110/149/183 107/151/183
f 127/135/184 111/146/184 102/161/184
f 128/144/185 112/142/185 104/158/185
f 129/140/186 114/138/186 106/155/186
f 130/130/187 118/128/187 108/152/187
f 131/127/188 117/134/188 110/149/188
f 132/181/189 113/145/189 116/147/189
f 132/182/190 115/141/190 113/143/190
f 132/183/191 120/136/191 115/139/191
f 131/127/192 119/131/192 117/134/192
f 132/184/193 119/126/193 120/129/193
f 87/112/194 91/113/194 95/180/194 100/163/194
f 87/112/195 100/163/195 122/150/195 61/121/195
f 61/121/196 122/150/196 96/169/196 83/101/196
f 83/101/197 96/169/197 92/179/197 88/102/197
f 88/102/198 92/179/198 121/178/198 62/120/198
f 91/113/199 62/120/199 121/172/199 95/180/199
