# Blender v2.91.2 OBJ File: 'Trees.blend'
# www.blender.org
mtllib Larix.mtl
o Larix_Cube.030
v -1.533272 -1.820316 1.449667
v -0.525413 7.970405 0.441807
v -1.533272 -1.820316 -1.827487
v -0.525413 7.970405 -0.819627
v 1.743881 -1.820316 1.449667
v 0.736022 7.970405 0.441807
v 1.743881 -1.820316 -1.827487
v 0.736022 7.970405 -0.819627
v 4.237906 5.723743 -0.108227
v 1.467132 5.723743 3.729367
v -3.038901 5.723743 2.280100
v -3.052905 5.723743 -2.453240
v 1.444394 5.723743 -3.929256
v 0.629022 12.460974 1.188704
v -0.881530 12.460974 0.697888
v -0.881530 12.460974 -0.890391
v 0.629022 12.460974 -1.381207
v 1.562618 12.460974 -0.096251
v 3.008871 10.865257 -1.337965
v 2.256890 10.865257 2.180475
v -1.321749 10.865257 2.552581
v -2.781432 10.865257 -0.735951
v -0.104957 10.865257 -3.140400
v 0.888700 17.602486 0.662057
v -0.300413 17.602486 0.782114
v -0.782051 17.602486 -0.311689
v 0.109386 17.602486 -1.107769
v 1.141984 17.602486 -0.505965
v 2.184016 16.356356 0.732339
v 0.032685 16.356356 2.035681
v -1.871691 16.356356 0.392396
v -0.897269 16.356356 -1.926555
v 1.609278 16.356356 -1.716437
v 0.142731 21.808577 0.694454
v -0.562076 21.808577 0.082597
v -0.197969 21.808577 -0.776783
v 0.731872 21.808577 -0.696064
v 0.942448 21.808577 0.213218
v 0.216383 26.817970 -0.094405
v 0.214948 26.817970 -0.100602
v -0.144621 7.101197 -1.153537
v -0.106644 14.899125 1.185737
v -0.231192 14.573724 1.038880
v 0.210916 14.838506 1.050734
v -0.257103 6.629825 -1.238059
v 0.086368 14.513104 0.903877
v -0.495044 6.599145 -0.750311
v -0.382563 7.070518 -0.665789
v 0.079132 13.882085 2.758014
v -0.160154 13.787496 2.712615
v -0.273335 14.023910 2.816592
v -0.034047 14.118498 2.861991
v 0.189033 13.340647 3.883027
v 0.081346 13.269854 3.902728
v 0.036615 13.364153 3.997086
v 0.144303 13.434946 3.977385
v 0.443819 13.018919 4.391439
v 0.403990 12.992736 4.398726
v 0.387446 13.027614 4.433624
v 0.427276 13.053797 4.426338
v -2.214064 9.214952 -3.602032
v -1.953412 9.291817 -3.545691
v -2.313861 9.377234 -3.361726
v -2.053209 9.454096 -3.305384
v -2.430260 11.257561 -4.943960
v -2.339107 11.284441 -4.924257
v -2.465158 11.314313 -4.859923
v -2.374007 11.341192 -4.840220
v 0.870366 14.465439 -0.309930
v 0.790737 14.246884 -0.608021
v 0.710215 14.735589 -0.465219
v 0.630585 14.517035 -0.763310
v 2.547699 14.640876 -1.144625
v 2.545547 14.381991 -1.179840
v 2.624455 14.344859 -0.911685
v 2.626607 14.603745 -0.876470
v 3.721959 14.788289 -1.557263
v 3.764705 14.671173 -1.595380
v 3.848023 14.664740 -1.482185
v 3.805278 14.781857 -1.444067
v 4.240566 15.033617 -1.869943
v 4.256375 14.990300 -1.884041
v 4.287190 14.987922 -1.842175
v 4.271381 15.031239 -1.828076
vt 0.474604 0.733257
vt 0.517129 0.733257
vt 0.517129 0.775782
vt 0.474604 0.775782
vt 0.517129 0.818307
vt 0.474604 0.818307
vt 0.517129 0.860832
vt 0.474604 0.860832
vt 0.517129 0.903357
vt 0.474604 0.903357
vt 0.432079 0.818307
vt 0.432079 0.860832
vt 0.862515 0.181754
vt 0.851360 0.181754
vt 0.845782 0.191415
vt 0.856938 0.191415
vt 0.840204 0.181754
vt 0.834626 0.191415
vt 0.829049 0.181754
vt 0.823471 0.191415
vt 0.873671 0.181754
vt 0.868093 0.191415
vt 0.879249 0.191415
vt 0.862515 0.181754
vt 0.851360 0.181754
vt 0.845782 0.191415
vt 0.856938 0.191415
vt 0.840204 0.181754
vt 0.834626 0.191415
vt 0.829049 0.181754
vt 0.823471 0.191415
vt 0.873671 0.181754
vt 0.868093 0.191415
vt 0.879249 0.191415
vt 0.862515 0.181754
vt 0.851360 0.181754
vt 0.845782 0.191415
vt 0.856938 0.191415
vt 0.840204 0.181754
vt 0.834626 0.191415
vt 0.829049 0.181754
vt 0.823471 0.191415
vt 0.873671 0.181754
vt 0.868093 0.191415
vt 0.879249 0.191415
vt 0.856938 0.191415
vt 0.845782 0.191415
vt 0.517129 0.870239
vt 0.517129 0.870239
vt 0.517129 0.870239
vt 0.517129 0.870239
vt 0.517129 0.763682
vt 0.517129 0.745357
vt 0.517129 0.745357
vt 0.517129 0.763682
vt 0.517129 0.893950
vt 0.517129 0.870239
vt 0.517129 0.893950
vt 0.517129 0.893950
vt 0.517129 0.893950
vt 0.517129 0.893950
vt 0.517129 0.870239
vt 0.517129 0.870239
vt 0.517129 0.870239
vt 0.517129 0.893950
vt 0.517129 0.893950
vt 0.517129 0.893950
vt 0.517129 0.745357
vt 0.517129 0.763682
vt 0.517129 0.763682
vt 0.517129 0.745357
vt 0.517129 0.745357
vt 0.517129 0.763682
vt 0.517129 0.763682
vt 0.517129 0.745357
vt 0.517129 0.870239
vt 0.517129 0.870239
vt 0.517129 0.870239
vt 0.517129 0.870239
vt 0.517129 0.893950
vt 0.517129 0.870239
vt 0.517129 0.893950
vt 0.517129 0.893950
vt 0.517129 0.893950
vt 0.517129 0.893950
vt 0.517129 0.870239
vt 0.517129 0.870239
vt 0.517129 0.870239
vt 0.517129 0.893950
vt 0.517129 0.893950
vt 0.517129 0.893950
vn -0.9947 0.1024 0.0000
vn 0.0000 0.1024 -0.9947
vn 0.9947 0.1024 0.0000
vn 0.0000 0.1024 0.9947
vn 0.0000 -1.0000 0.0000
vn 0.7690 0.3059 -0.5613
vn -0.2962 0.3059 -0.9048
vn -0.9521 0.3059 0.0021
vn -0.2922 0.3059 0.9061
vn 0.7715 0.3059 0.5579
vn 0.4872 0.2384 -0.8402
vn -0.6485 0.2384 -0.7229
vn -0.8880 0.2384 0.3934
vn 0.0997 0.2384 0.9660
vn 0.9496 0.2384 0.2037
vn 0.9549 0.1958 -0.2233
vn 0.0827 0.1958 -0.9771
vn -0.9038 0.1958 -0.3806
vn -0.6413 0.1958 0.7419
vn 0.5074 0.1958 0.8391
vn 0.5115 0.1263 0.8500
vn -0.6501 0.1282 0.7489
vn 0.9664 0.1263 -0.2238
vn -0.9133 0.1275 -0.3869
vn 0.0858 0.1263 -0.9883
vn 0.0175 -0.6619 -0.7494
vn 0.7181 -0.6619 -0.2149
vn -0.7073 -0.6619 -0.2482
vn -0.4546 -0.6619 0.5960
vn 0.4263 -0.6619 0.6166
vn 0.6045 -0.5974 -0.5270
vn 0.6879 -0.5975 0.4120
vn -0.1793 -0.5975 0.7815
vn -0.7988 -0.5974 0.0710
vn -0.3144 -0.5973 -0.7378
vn 0.0125 0.9067 0.4217
vn -0.7024 -0.6824 -0.2025
vn 0.9189 0.3838 0.0916
vn -0.0034 -0.9279 -0.3727
vn 0.9977 -0.0437 0.0526
vn -0.9995 0.0271 -0.0153
vn -0.2855 0.6343 0.7184
vn -0.9031 -0.4293 -0.0032
vn -0.3976 0.7526 0.5249
vn 0.4142 -0.8023 -0.4299
vn 0.4654 -0.5059 0.7262
vn 0.3488 -0.7031 -0.6197
vn 0.8537 0.5101 -0.1051
vn -0.7950 -0.5738 0.1966
vn 0.9345 0.3063 0.1813
vn -0.6595 0.2685 0.7021
vn 0.6745 0.7151 0.1836
vn 0.6301 -0.2390 -0.7388
vn -0.1096 0.8020 -0.5871
vn 0.3207 -0.4961 -0.8068
vn -0.9426 -0.2472 -0.2245
vn -0.3296 0.5614 0.7591
vn 0.2731 0.2898 0.9173
vn -0.0761 0.9865 0.1450
vn -0.2228 -0.2786 -0.9342
vn -0.0579 0.9553 -0.2899
vn 0.0972 -0.9554 0.2789
vn 0.6408 -0.0159 0.7675
vn 0.1680 -0.9688 -0.1822
vn 0.4458 -0.1247 0.8864
vn -0.3469 0.1433 -0.9269
vn 0.7361 0.4369 -0.5170
vn -0.5408 0.0753 -0.8378
vn -0.2808 0.9241 0.2592
vn 0.3736 -0.8690 -0.3244
usemtl Taiga
s off
f 1/1/1 2/2/1 4/3/1 3/4/1
f 3/4/2 4/3/2 8/5/2 7/6/2
f 7/6/3 8/5/3 6/7/3 5/8/3
f 5/8/4 6/7/4 2/9/4 1/10/4
f 3/11/5 7/6/5 5/8/5 1/12/5
f 9/13/6 13/14/6 17/15/6 18/16/6
f 13/14/7 12/17/7 16/18/7 17/15/7
f 12/17/8 11/19/8 15/20/8 16/18/8
f 11/19/9 10/21/9 14/22/9 15/23/9
f 10/21/10 9/13/10 18/16/10 14/22/10
f 11/19/5 12/17/5 13/14/5
f 10/21/5 11/19/5 13/14/5 9/13/5
f 19/24/11 23/25/11 27/26/11 28/27/11
f 23/25/12 22/28/12 26/29/12 27/26/12
f 22/28/13 21/30/13 25/31/13 26/29/13
f 21/30/14 20/32/14 24/33/14 25/34/14
f 20/32/15 19/24/15 28/27/15 24/33/15
f 29/35/16 33/36/16 37/37/16 38/38/16
f 33/36/17 32/39/17 36/40/17 37/37/17
f 32/39/18 31/41/18 35/42/18 36/40/18
f 31/41/19 30/43/19 34/44/19 35/45/19
f 30/43/20 29/35/20 38/38/20 34/44/20
f 38/38/21 39/46/21 34/44/21
f 35/42/22 34/44/22 40/47/22
f 38/38/23 37/37/23 40/47/23 39/46/23
f 36/40/24 35/42/24 40/47/24
f 37/37/25 36/40/25 40/47/25
f 15/23/26 14/22/26 20/32/26 21/30/26
f 16/18/27 15/23/27 21/30/27 22/28/27
f 14/22/28 18/16/28 19/24/28 20/32/28
f 18/16/29 17/15/29 23/25/29 19/24/29
f 17/15/30 16/18/30 22/28/30 23/25/30
f 26/29/31 25/31/31 30/43/31 31/41/31
f 27/26/32 26/29/32 31/41/32 32/39/32
f 28/27/33 27/26/33 32/39/33 33/36/33
f 24/33/34 28/27/34 33/36/34 29/35/34
f 25/31/35 24/33/35 29/35/35 30/43/35
f 44/48/36 42/49/36 51/50/36 52/51/36
f 45/52/37 47/53/37 63/54/37 61/55/37
f 49/56/38 52/51/38 56/57/38 53/58/38
f 43/59/39 46/60/39 49/56/39 50/61/39
f 46/60/40 44/48/40 52/51/40 49/56/40
f 42/49/41 43/59/41 50/61/41 51/50/41
f 56/57/42 55/62/42 59/63/42 60/64/42
f 51/50/43 50/61/43 54/65/43 55/62/43
f 52/51/44 51/50/44 55/62/44 56/57/44
f 50/61/45 49/56/45 53/58/45 54/65/45
f 57/66/46 60/64/46 59/63/46 58/67/46
f 54/65/47 53/58/47 57/66/47 58/67/47
f 53/58/48 56/57/48 60/64/48 57/66/48
f 55/62/49 54/65/49 58/67/49 59/63/49
f 64/68/50 62/69/50 66/70/50 68/71/50
f 47/53/51 48/72/51 64/68/51 63/54/51
f 48/72/52 41/73/52 62/69/52 64/68/52
f 41/73/53 45/52/53 61/55/53 62/69/53
f 65/74/54 67/75/54 68/71/54 66/70/54
f 62/69/55 61/55/55 65/74/55 66/70/55
f 61/55/56 63/54/56 67/75/56 65/74/56
f 63/54/57 64/68/57 68/71/57 67/75/57
f 71/76/58 69/77/58 75/78/58 76/79/58
f 73/80/59 76/79/59 80/81/59 77/82/59
f 70/83/60 72/84/60 73/80/60 74/85/60
f 72/84/61 71/76/61 76/79/61 73/80/61
f 69/77/62 70/83/62 74/85/62 75/78/62
f 80/81/63 79/86/63 83/87/63 84/88/63
f 75/78/64 74/85/64 78/89/64 79/86/64
f 76/79/65 75/78/65 79/86/65 80/81/65
f 74/85/66 73/80/66 77/82/66 78/89/66
f 81/90/67 84/88/67 83/87/67 82/91/67
f 78/89/68 77/82/68 81/90/68 82/91/68
f 77/82/69 80/81/69 84/88/69 81/90/69
f 79/86/70 78/89/70 82/91/70 83/87/70
