# Blender v2.91.2 OBJ File: 'Trees.blend'
# www.blender.org
mtllib Ficus.mtl
o Ficus_Cube.017
v -1.382687 -1.681672 1.000000
v -0.104233 2.600761 0.765362
v -1.382687 -1.681672 -1.000000
v 0.458317 2.600761 -0.314896
v 0.617313 -1.681672 1.000000
v 0.938300 2.281700 1.308266
v 0.617313 -1.681672 -1.000000
v 1.500849 2.281700 0.228008
v -0.121435 5.657917 1.701680
v 0.472867 6.131426 1.335283
v 0.985795 5.995033 1.990993
v 0.391493 5.521523 2.357390
v -0.656865 8.875376 3.005473
v -0.695850 8.946505 2.598712
v -0.293253 9.043894 2.577157
v -0.254268 8.972766 2.983917
v -0.577645 6.605859 2.384215
v 3.313105 8.164946 5.464656
v -2.229759 7.390178 7.238840
v -5.707511 6.929120 2.434047
v -2.313950 7.844327 -2.309633
v 3.261072 8.346164 -0.436570
v 0.296119 10.037905 6.997789
v -4.436682 8.665732 5.202049
v -5.039245 9.215737 -0.355937
v 0.204063 10.718348 -1.482675
v 3.035005 10.812031 2.593540
v -1.498614 6.682540 5.207796
v 1.759376 6.529584 4.164968
v 0.788304 7.003098 7.018451
v 4.015713 7.882174 2.506965
v 1.728792 6.595750 0.696339
v -3.542788 6.603217 2.383633
v -4.513893 7.066240 5.237097
v -1.548100 6.799582 -0.404611
v -4.563379 6.912148 -0.375329
v 0.708234 8.210916 -2.062643
v 4.043045 9.615923 4.331862
v 3.976015 9.381083 0.867746
v -0.813583 8.303668 8.166821
v 2.021264 8.979198 7.054906
v -5.729202 7.784568 3.878696
v -3.450478 8.190757 6.646098
v -3.953532 8.351287 -1.698194
v -6.165264 7.714563 0.773017
v 1.906886 9.907834 -1.548504
v -0.884152 9.451526 -2.629488
v 2.162660 10.796803 4.962409
v -2.434373 9.277698 7.171361
v -5.741854 9.116774 2.601754
v -2.548924 9.950631 -1.636158
v 2.068696 10.800928 0.106116
v -0.178039 10.516384 5.513329
v 1.816648 10.857291 2.725086
v -0.227526 10.573180 -0.099078
v 1.188549 10.029481 4.969835
v -3.891474 9.709953 6.408161
v -6.370570 10.082105 2.580403
v -3.533164 9.422313 -0.452170
v 1.188549 10.029481 0.315427
v -0.330358 11.021011 6.055389
v -5.926391 11.764473 4.764686
v -5.785159 11.763798 0.622559
v -0.704606 11.771703 -0.934355
v 2.056318 11.085646 2.642631
v -2.487410 13.185932 2.642631
v -3.312691 9.519375 4.855937
v -1.152024 9.449948 6.223846
v 1.833921 9.903287 2.642631
v -5.158143 9.489608 2.642631
v -5.554016 9.950468 4.678327
v -5.406362 10.122769 0.935907
v -1.696076 9.701116 0.726676
v 2.344009 10.144789 4.010523
v 2.344009 10.234141 1.274739
v -2.487410 10.748269 7.069285
v 0.498569 10.287583 6.223868
v -6.844786 10.748269 4.048704
v -5.473388 10.748269 6.223868
v -4.745751 11.018480 -0.724509
v -6.984946 10.748269 1.430531
v 0.498569 10.556164 -0.938607
v -1.842589 10.133677 -1.350954
v 1.008625 11.593251 4.855944
v -3.001389 11.789726 6.412457
v -6.413150 12.104983 2.642940
v -3.369917 11.805521 -0.898929
v 1.008625 11.266325 0.429317
v -1.283039 12.435966 4.812538
v 0.183322 12.115468 2.642631
v -4.648070 12.624998 4.010518
v -4.648070 12.979882 1.274744
v -1.662128 12.576344 0.429325
vt 0.481393 0.785218
vt 0.518607 0.785218
vt 0.518607 0.822432
vt 0.481393 0.822432
vt 0.518607 0.859645
vt 0.481393 0.859645
vt 0.518607 0.896860
vt 0.481393 0.896860
vt 0.518607 0.934074
vt 0.481393 0.934074
vt 0.444179 0.859645
vt 0.444179 0.896860
vt 0.518607 0.785218
vt 0.518607 0.822432
vt 0.518607 0.934074
vt 0.518607 0.896860
vt 0.518607 0.896860
vt 0.518607 0.934074
vt 0.518607 0.859645
vt 0.518607 0.859645
vt 0.555821 0.859645
vt 0.555821 0.896860
vt 0.518607 0.822432
vt 0.518607 0.785218
vt 0.551819 0.131456
vt 0.546778 0.140187
vt 0.556859 0.140187
vt 0.541738 0.148917
vt 0.536697 0.140187
vt 0.531657 0.148917
vt 0.471171 0.131456
vt 0.466130 0.140187
vt 0.476211 0.140187
vt 0.491333 0.131456
vt 0.486292 0.140187
vt 0.496373 0.140187
vt 0.511495 0.131456
vt 0.506454 0.140187
vt 0.516535 0.140187
vt 0.536697 0.157648
vt 0.561900 0.148917
vt 0.551819 0.148917
vt 0.556859 0.157648
vt 0.481252 0.148917
vt 0.471171 0.148917
vt 0.476211 0.157648
vt 0.501414 0.148917
vt 0.491333 0.148917
vt 0.496373 0.157648
vt 0.521576 0.148917
vt 0.511495 0.148917
vt 0.516535 0.157648
vt 0.546778 0.157648
vt 0.566940 0.157648
vt 0.486292 0.157648
vt 0.506454 0.157648
vt 0.526616 0.157648
vt 0.551819 0.166378
vt 0.541738 0.166378
vt 0.546778 0.175109
vt 0.511495 0.166378
vt 0.501414 0.166378
vt 0.506454 0.175109
vt 0.531657 0.166378
vt 0.521576 0.166378
vt 0.526616 0.175109
vt 0.516535 0.175109
vt 0.561900 0.166378
vt 0.556859 0.175109
vt 0.536697 0.175109
vt 0.491333 0.166378
vt 0.481252 0.166378
vt 0.471171 0.166378
vt 0.571981 0.166378
vt 0.466130 0.157648
vt 0.461090 0.148917
vt 0.526616 0.140187
vt 0.531657 0.131456
vt 0.561900 0.148917
vt 0.551819 0.148917
vt 0.556859 0.157648
vt 0.481252 0.148917
vt 0.471171 0.148917
vt 0.476211 0.157648
vt 0.501414 0.148917
vt 0.491333 0.148917
vt 0.496373 0.157648
vt 0.521576 0.148917
vt 0.511495 0.148917
vt 0.516535 0.157648
vt 0.541738 0.148917
vt 0.536697 0.157648
vt 0.546778 0.157648
vt 0.566940 0.157648
vt 0.486292 0.157648
vt 0.506454 0.157648
vt 0.526616 0.157648
vt 0.551819 0.166378
vt 0.541738 0.166378
vt 0.546778 0.175109
vt 0.571981 0.166378
vt 0.561900 0.166378
vt 0.566940 0.175109
vt 0.491333 0.166378
vt 0.481252 0.166378
vt 0.486292 0.175109
vt 0.511495 0.166378
vt 0.501414 0.166378
vt 0.506454 0.175109
vt 0.531657 0.166378
vt 0.521576 0.166378
vt 0.526616 0.175109
vt 0.516535 0.175109
vt 0.521576 0.183839
vt 0.496373 0.175109
vt 0.501414 0.183839
vt 0.476211 0.175109
vt 0.481252 0.183839
vt 0.471171 0.166378
vt 0.556859 0.175109
vt 0.561900 0.183839
vt 0.536697 0.175109
vt 0.541738 0.183839
vt 0.466130 0.157648
vt 0.461090 0.148917
vt 0.531657 0.148917
vt 0.486292 0.140187
vt 0.476211 0.140187
vt 0.466130 0.140187
vt 0.556859 0.140187
vn -0.9233 0.3451 -0.1686
vn 0.1898 0.1620 -0.9684
vn 0.9674 -0.1813 0.1767
vn -0.1731 0.0248 0.9846
vn 0.0000 -1.0000 0.0000
vn -0.7957 0.2211 -0.5639
vn -0.5485 -0.3207 0.7722
vn -0.6360 -0.2833 0.7178
vn 0.6330 0.3653 -0.6826
vn 0.7941 -0.1197 0.5959
vn -0.2214 0.9568 0.1885
vn 0.5221 0.4470 -0.7263
vn 0.7689 0.1102 0.6298
vn -0.8170 0.0146 -0.5765
vn -0.0427 -0.9990 0.0132
vn 0.6148 -0.7578 0.2185
vn 0.0009 -0.9996 0.0274
vn 0.0009 -0.9976 -0.0696
vn -0.0439 -0.9976 -0.0540
vn 0.9293 -0.2746 0.2470
vn -0.0348 -0.6852 0.7275
vn -0.7302 -0.5926 0.3399
vn -0.4342 -0.5030 -0.7473
vn 0.5377 -0.1272 -0.8335
vn 0.7923 0.0742 0.6056
vn -0.4928 -0.1126 0.8628
vn -0.9552 -0.2606 0.1400
vn -0.3210 0.0981 -0.9420
vn 0.7632 0.2326 -0.6029
vn -0.0387 0.9474 0.3177
vn -0.2695 0.9629 0.0170
vn 0.0352 0.9992 -0.0181
vn -0.0959 0.9949 -0.0306
vn -0.1048 0.9919 0.0714
vn -0.2283 0.9030 0.3640
vn -0.1087 0.9931 0.0437
vn 0.0394 0.9990 0.0209
vn 0.6406 0.7253 -0.2521
vn 0.6443 0.6449 -0.4111
vn 0.3646 0.8041 -0.4697
vn -0.1692 0.7373 -0.6540
vn -0.3896 0.3748 -0.8413
vn -0.5091 0.4750 -0.7177
vn -0.8478 0.4970 -0.1848
vn -0.9835 0.1204 0.1354
vn -0.7715 0.4364 0.4629
vn -0.7066 0.3688 0.6039
vn -0.5006 0.0503 0.8642
vn -0.1188 0.6061 0.7864
vn 0.3966 0.6796 0.6171
vn 0.5668 0.6026 0.5618
vn 0.5701 0.7930 0.2150
vn 0.2257 0.5401 -0.8108
vn 0.3566 0.0310 -0.9338
vn 0.1128 -0.2895 -0.9505
vn -0.7523 0.0719 -0.6548
vn -0.6546 -0.3422 -0.6741
vn -0.5597 -0.7981 -0.2231
vn -0.7679 0.2268 0.5990
vn -0.7636 -0.0805 0.6406
vn -0.5868 -0.3563 0.7272
vn 0.2375 0.4339 0.8691
vn 0.4066 -0.2698 0.8728
vn 0.6062 -0.3910 0.6926
vn 0.8020 0.5947 -0.0558
vn 0.9998 0.0050 -0.0197
vn 0.9179 -0.2816 -0.2797
vn 0.4003 -0.7185 -0.5687
vn 0.1281 -0.8345 -0.5359
vn 0.1446 -0.8419 -0.5199
vn -0.0375 -0.8825 -0.4689
vn -0.0381 -0.9945 -0.0973
vn -0.1499 -0.9872 -0.0551
vn -0.1455 -0.9832 0.1100
vn -0.1242 -0.9853 0.1176
vn -0.1181 -0.9502 0.2885
vn 0.6278 -0.7280 -0.2757
vn 0.5027 -0.8642 -0.0209
vn -0.0182 -0.9997 -0.0189
vn -0.1003 -0.9502 0.2950
vn 0.0068 -0.9861 0.1660
vn 0.5500 -0.7733 0.3155
vn 0.0051 -0.5420 0.8404
vn -0.5780 -0.7971 0.1750
vn -0.6176 -0.5629 -0.5493
vn 0.0456 -0.9118 -0.4081
vn 0.4098 -0.8224 0.3947
vn -0.2646 -0.2373 0.9347
vn -0.7689 -0.6381 0.0412
vn -0.3043 -0.3802 -0.8734
vn 0.5740 -0.5929 -0.5648
vn 0.2563 0.7295 0.6341
vn -0.2774 0.8325 0.4797
vn -0.6049 0.7328 -0.3118
vn 0.0042 0.8625 -0.5060
vn 0.4760 0.8657 -0.1546
vn 0.3695 0.9219 -0.1161
vn 0.4334 0.8836 -0.1774
vn 0.4300 0.8767 -0.2154
vn 0.0619 0.9679 -0.2435
vn -0.0187 0.8750 -0.4837
vn -0.3932 0.6922 -0.6052
vn -0.1733 0.9767 0.1267
vn -0.3648 0.9233 0.1198
vn -0.4407 0.8650 0.2399
vn -0.0284 0.9398 0.3406
vn -0.0299 0.9376 0.3466
vn 0.2932 0.7347 0.6117
vn 0.3696 0.9222 0.1136
vn 0.3421 0.9350 0.0931
vn 0.4816 0.8760 0.0271
vn 0.6904 0.6703 -0.2721
vn 0.7039 0.4882 -0.5159
vn 0.6003 0.5960 -0.5333
vn -0.0097 0.2528 -0.9675
vn -0.1809 0.0993 -0.9785
vn -0.4314 0.6061 -0.6682
vn -0.7292 0.6005 -0.3281
vn -0.9356 0.3495 0.0501
vn -0.8012 0.5342 0.2695
vn -0.3476 0.7154 0.6061
vn -0.2463 0.4271 0.8700
vn 0.2743 0.6062 0.7465
vn 0.3812 0.5936 0.7087
vn 0.7348 0.3324 0.5912
vn 0.7792 0.5808 0.2356
vn 0.1457 0.1476 -0.9783
vn 0.2098 -0.9542 -0.2135
vn 0.2797 -0.9358 -0.2146
vn -0.6844 0.2697 -0.6773
vn -0.4509 -0.6982 -0.5560
vn -0.4269 -0.8625 -0.2716
vn -0.7884 0.3623 0.4971
vn -0.6140 -0.6879 0.3871
vn -0.5334 -0.7400 0.4098
vn 0.3058 0.5277 0.7925
vn 0.1958 -0.3858 0.9016
vn 0.9521 0.3056 0.0100
vn 0.4891 -0.8718 -0.0285
vn 0.2750 -0.9529 -0.1279
vn -0.4126 -0.8720 -0.2635
vn -0.4409 -0.8901 0.1158
vn -0.1995 -0.9634 0.1793
vn -0.1924 -0.9801 0.0486
vn -0.0882 -0.9921 0.0889
vn -0.4907 -0.8378 -0.2394
vn -0.6200 0.6592 0.4255
vn -0.1860 0.9778 -0.0967
vn -0.4098 0.8658 0.2870
vn -0.3377 0.9143 0.2235
vn -0.2759 0.9404 0.1989
usemtl SelvaTemplada
s off
f 1/1/1 2/2/1 4/3/1 3/4/1
f 3/4/2 4/3/2 8/5/2 7/6/2
f 7/6/3 8/5/3 6/7/3 5/8/3
f 5/8/4 6/7/4 2/9/4 1/10/4
f 3/11/5 7/6/5 5/8/5 1/12/5
f 4/3/6 2/2/6 9/13/6 10/14/6
f 9/15/7 12/16/7 16/17/7 13/18/7
f 2/9/8 6/7/8 12/16/8 9/15/8
f 8/5/9 4/3/9 10/14/9 11/19/9
f 6/7/10 8/5/10 11/19/10 12/16/10
f 15/20/11 14/21/11 13/22/11 16/17/11
f 11/19/12 10/14/12 14/23/12 15/20/12
f 12/16/13 11/19/13 15/20/13 16/17/13
f 10/14/14 9/13/14 13/24/14 14/23/14
f 17/25/15 29/26/15 28/27/15
f 18/28/16 29/29/16 31/30/16
f 17/31/17 28/32/17 33/33/17
f 17/34/18 33/35/18 35/36/18
f 17/37/19 35/38/19 32/39/19
f 18/28/20 31/30/20 38/40/20
f 19/41/21 30/42/21 40/43/21
f 20/44/22 34/45/22 42/46/22
f 21/47/23 36/48/23 44/49/23
f 22/50/24 37/51/24 46/52/24
f 18/28/25 38/40/25 41/53/25
f 19/41/26 40/43/26 43/54/26
f 20/44/27 42/46/27 45/55/27
f 21/47/28 44/49/28 47/56/28
f 22/50/29 46/52/29 39/57/29
f 23/58/30 48/59/30 53/60/30
f 26/61/31 51/62/31 55/63/31
f 27/64/32 52/65/32 54/66/32
f 54/66/33 52/65/33 55/67/33
f 52/65/34 26/61/34 55/67/34
f 49/68/35 23/58/35 53/69/35
f 53/60/36 48/59/36 54/70/36
f 48/59/37 27/64/37 54/70/37
f 39/57/38 52/65/38 27/64/38
f 39/57/39 46/52/39 52/65/39
f 46/52/40 26/61/40 52/65/40
f 47/56/41 51/62/41 26/61/41
f 47/56/42 44/49/42 51/62/42
f 44/49/43 25/71/43 51/62/43
f 45/55/44 50/72/44 25/71/44
f 45/55/45 42/46/45 50/72/45
f 42/46/46 24/73/46 50/72/46
f 43/54/47 49/68/47 24/74/47
f 43/54/48 40/43/48 49/68/48
f 40/43/49 23/58/49 49/68/49
f 41/53/50 48/59/50 23/58/50
f 41/53/51 38/40/51 48/59/51
f 38/40/52 27/64/52 48/59/52
f 46/52/53 47/56/53 26/61/53
f 46/52/54 37/51/54 47/56/54
f 37/51/55 21/47/55 47/56/55
f 44/49/56 45/55/56 25/71/56
f 44/49/57 36/48/57 45/55/57
f 36/48/58 20/44/58 45/55/58
f 42/46/59 43/75/59 24/73/59
f 42/46/60 34/45/60 43/75/60
f 34/45/61 19/76/61 43/75/61
f 40/43/62 41/53/62 23/58/62
f 40/43/63 30/42/63 41/53/63
f 30/42/64 18/28/64 41/53/64
f 38/40/65 39/57/65 27/64/65
f 38/40/66 31/30/66 39/57/66
f 31/30/67 22/50/67 39/57/67
f 32/39/68 37/51/68 22/50/68
f 32/39/69 35/38/69 37/51/69
f 35/38/70 21/47/70 37/51/70
f 35/36/71 36/48/71 21/47/71
f 35/36/72 33/35/72 36/48/72
f 33/35/73 20/44/73 36/48/73
f 33/33/74 34/45/74 20/44/74
f 33/33/75 28/32/75 34/45/75
f 28/32/76 19/76/76 34/45/76
f 31/30/77 32/77/77 22/50/77
f 31/30/78 29/29/78 32/77/78
f 29/29/79 17/78/79 32/77/79
f 28/27/80 30/42/80 19/41/80
f 28/27/81 29/26/81 30/42/81
f 29/26/82 18/28/82 30/42/82
f 57/79/83 68/80/83 76/81/83
f 58/82/84 71/83/84 78/84/84
f 59/85/85 72/86/85 80/87/85
f 60/88/86 73/89/86 82/90/86
f 56/91/87 74/92/87 77/93/87
f 57/79/88 76/81/88 79/94/88
f 58/82/89 78/84/89 81/95/89
f 59/85/90 80/87/90 83/96/90
f 60/88/91 82/90/91 75/97/91
f 61/98/92 84/99/92 89/100/92
f 62/101/93 85/102/93 91/103/93
f 63/104/94 86/105/94 92/106/94
f 64/107/95 87/108/95 93/109/95
f 65/110/96 88/111/96 90/112/96
f 90/112/97 93/113/97 66/114/97
f 90/112/98 88/111/98 93/113/98
f 88/111/99 64/107/99 93/113/99
f 93/109/100 92/115/100 66/116/100
f 93/109/101 87/108/101 92/115/101
f 87/108/102 63/104/102 92/115/102
f 92/106/103 91/117/103 66/118/103
f 92/106/104 86/105/104 91/117/104
f 86/105/105 62/119/105 91/117/105
f 91/103/106 89/120/106 66/121/106
f 91/103/107 85/102/107 89/120/107
f 85/102/108 61/98/108 89/120/108
f 89/100/109 90/122/109 66/123/109
f 89/100/110 84/99/110 90/122/110
f 84/99/111 65/110/111 90/122/111
f 75/97/112 88/111/112 65/110/112
f 75/97/113 82/90/113 88/111/113
f 82/90/114 64/107/114 88/111/114
f 83/96/115 87/108/115 64/107/115
f 83/96/116 80/87/116 87/108/116
f 80/87/117 63/104/117 87/108/117
f 81/95/118 86/105/118 63/104/118
f 81/95/119 78/84/119 86/105/119
f 78/84/120 62/119/120 86/105/120
f 79/94/121 85/102/121 62/101/121
f 79/94/122 76/81/122 85/102/122
f 76/81/123 61/98/123 85/102/123
f 77/93/124 84/99/124 61/98/124
f 77/93/125 74/92/125 84/99/125
f 74/92/126 65/110/126 84/99/126
f 82/90/127 83/96/127 64/107/127
f 82/90/128 73/89/128 83/96/128
f 73/89/129 59/85/129 83/96/129
f 80/87/130 81/95/130 63/104/130
f 80/87/131 72/86/131 81/95/131
f 72/86/132 58/82/132 81/95/132
f 78/84/133 79/124/133 62/119/133
f 78/84/134 71/83/134 79/124/134
f 71/83/135 57/125/135 79/124/135
f 76/81/136 77/93/136 61/98/136
f 76/81/137 68/80/137 77/93/137
f 74/92/138 75/97/138 65/110/138
f 74/92/139 69/126/139 75/97/139
f 69/126/140 60/88/140 75/97/140
f 70/127/141 58/82/141 72/86/141
f 70/128/142 71/83/142 58/82/142
f 70/128/143 67/129/143 71/83/143
f 67/129/144 57/125/144 71/83/144
f 67/130/145 68/80/145 57/79/145
f 59/85/146 70/127/146 72/86/146
f 24/73/147 49/68/147 50/72/147
f 25/71/148 50/72/148 70/127/148 73/89/148
f 70/127/149 50/72/149 49/68/149 67/129/149
f 49/68/150 53/69/150 67/129/150
f 25/71/151 73/89/151 55/63/151 51/62/151
