# Blender v2.91.2 OBJ File: 'Trees.blend'
# www.blender.org
mtllib PrunusPersica.mtl
o PrunusPersica_Cube.016
v -0.404178 -1.413789 0.400776
v 0.143271 4.545661 0.458549
v -0.404178 -1.413789 -0.426599
v -0.461951 4.545661 0.120849
v 0.423197 -1.413789 0.400776
v 0.480971 4.545661 -0.146672
v 0.423197 -1.413789 -0.426599
v -0.124251 4.545661 -0.484372
v -0.404178 -1.413789 -0.012912
v -0.159340 4.669857 0.289699
v 0.423197 -1.413789 -0.012912
v 0.178360 4.669857 -0.315522
v 0.009510 -1.413789 -0.426599
v -0.293101 4.669857 -0.181762
v 0.009510 -1.413789 0.400776
v 0.312121 4.669857 0.155938
v 0.009510 4.818916 -0.012912
v 0.009510 -1.413789 -0.012912
v -0.516565 7.337651 -1.262391
v -0.402822 7.253989 -1.466240
v -0.198973 7.337651 -1.352497
v -0.312716 7.438062 -1.148648
v -1.967092 7.036206 0.510831
v -2.179060 6.994456 0.399312
v -2.053762 7.053322 0.199450
v -1.838613 7.111181 0.310969
v 0.335695 7.479191 0.624794
v 0.263203 7.425870 0.754714
v 0.133284 7.479191 0.682221
v 0.205776 7.543186 0.552302
v 2.042879 7.637618 -0.594721
v 2.279045 7.540692 -0.462946
v 1.911104 7.753947 -0.358556
v 2.147269 7.637618 -0.226780
v 0.396170 6.719097 -0.339827
v 3.457130 7.797743 0.836445
v -0.935281 7.110316 1.563439
v -3.649972 6.188789 -0.339827
v -0.774882 7.096057 -2.454252
v 3.457130 7.630636 -1.516099
v 1.302729 9.141077 1.865899
v -3.122962 8.320383 0.641832
v -3.296169 8.489321 -1.332142
v 1.302729 8.735666 -2.405921
v -0.549760 8.835218 -0.187903
v -0.958877 6.687890 1.034425
v 2.232643 7.187028 0.351563
v 1.450048 7.370096 1.470277
v 3.835238 7.597030 -0.245482
v 2.232643 6.949548 -1.031218
v -1.944790 6.461771 -0.339827
v -3.429522 6.599960 1.340767
v -0.349132 6.635333 -1.458530
v -2.727410 6.459816 -1.458534
v 1.450048 6.938153 -2.705526
v 3.397891 8.489019 0.177406
v 3.583272 8.489019 -0.809881
v 0.183724 7.822052 1.897600
v 2.765533 8.136271 1.470289
v -3.867016 7.431107 0.496055
v -2.398084 7.652105 1.470289
v -2.398084 7.757397 -2.149943
v -3.867016 7.346913 -0.895298
v 2.332822 8.020430 -2.576521
v 0.362037 7.800788 -3.131322
v 2.571032 9.265457 0.299906
v -1.082600 8.954323 1.772738
v -0.880858 8.889688 -2.633273
v 2.197962 9.112377 -1.161456
v 0.716581 9.601801 1.081336
v 1.670431 9.142483 -0.246184
v -2.557952 8.798355 0.271645
v -2.561799 8.836939 -0.803157
v -0.642840 8.669987 -1.280779
v -5.205232 9.231497 0.072806
v -5.082489 9.632082 -0.557291
v -4.363550 10.173176 -0.110076
v -4.538882 10.076967 0.308494
v -4.610176 9.899351 -0.587281
v -4.896691 9.651468 0.655094
v -5.788778 11.745501 0.164876
v -5.684785 11.938166 -0.280893
v -5.473963 12.887880 0.057856
v -5.051685 12.025259 -0.117985
v -5.121671 12.024645 0.178333
v -5.340938 11.944498 -0.375689
v -5.405282 11.891190 0.472695
v 3.720339 10.236034 -1.040391
v 3.575518 11.444134 -0.737030
v 2.999806 10.766893 -0.826259
v 3.866122 10.145741 -0.472876
v 3.572657 10.657169 -0.147816
v 2.954376 10.735304 -0.204993
v -2.637140 4.722228 -0.695723
v -2.355108 5.275012 -0.490817
v -2.744864 5.275012 -0.364176
v -2.985752 5.275012 -0.695723
v -2.744864 5.275012 -1.027269
v -2.355108 5.275012 -0.900628
v -2.529416 6.169443 -0.364176
v -2.919172 6.169443 -0.490817
v -2.919172 6.169443 -0.900628
v -2.529416 6.169443 -1.027269
v -2.288528 6.169443 -0.695723
v -2.637140 6.722228 -0.695723
v 2.629702 5.482185 -0.372233
v 2.911733 6.034970 -0.167328
v 2.521978 6.034970 -0.040687
v 2.281090 6.034970 -0.372233
v 2.521978 6.034970 -0.703780
v 2.911733 6.034970 -0.577139
v 2.737426 6.929400 -0.040687
v 2.347670 6.929400 -0.167328
v 2.347670 6.929400 -0.577139
v 2.737426 6.929400 -0.703780
v 2.978314 6.929400 -0.372233
v 2.629702 7.482185 -0.372233
v -1.072233 5.282401 1.454805
v -0.790202 5.835186 1.659710
v -1.179957 5.835186 1.786352
v -1.420846 5.835186 1.454805
v -1.179957 5.835186 1.123258
v -0.790202 5.835186 1.249900
v -0.964509 6.729616 1.786352
v -1.354265 6.729616 1.659710
v -1.354265 6.729616 1.249900
v -0.964509 6.729616 1.123258
v -0.723621 6.729616 1.454805
v -1.072233 7.282401 1.454805
v -2.572095 7.454697 1.088571
v -2.290064 8.007483 1.293477
v -2.679820 8.007483 1.420118
v -2.920708 8.007483 1.088571
v -2.679820 8.007483 0.757024
v -2.290064 8.007483 0.883666
v -2.464371 8.901913 1.420118
v -2.854127 8.901913 1.293477
v -2.854127 8.901913 0.883666
v -2.464371 8.901913 0.757024
v -2.223483 8.901913 1.088571
v -2.572095 9.454699 1.088571
v 1.853568 8.801414 -2.648206
v 2.135600 8.773170 -2.059343
v 1.745844 8.652452 -2.021066
v 1.504956 8.968493 -2.121276
v 1.745844 9.284533 -2.221486
v 2.135600 9.163815 -2.183209
v 1.961292 8.922794 -1.168469
v 1.571536 9.043512 -1.206747
v 1.571536 9.434156 -1.330612
v 1.961292 9.554874 -1.368890
v 2.202180 9.238834 -1.268679
v 1.853568 9.405914 -0.741748
vt 0.481393 0.803825
vt 0.518607 0.803825
vt 0.518607 0.822432
vt 0.481393 0.822432
vt 0.481393 0.841039
vt 0.518607 0.841039
vt 0.518607 0.859645
vt 0.481393 0.859645
vt 0.481393 0.878253
vt 0.518607 0.878253
vt 0.518607 0.896860
vt 0.481393 0.896860
vt 0.481393 0.915467
vt 0.518607 0.915467
vt 0.518607 0.934074
vt 0.481393 0.934074
vt 0.462786 0.878253
vt 0.462786 0.896860
vt 0.518607 0.785218
vt 0.518607 0.785218
vt 0.518607 0.803825
vt 0.518607 0.803825
vt 0.518607 0.822432
vt 0.462786 0.859645
vt 0.481393 0.785218
vt 0.444179 0.859645
vt 0.444179 0.878253
vt 0.518607 0.841039
vt 0.518607 0.859645
vt 0.537214 0.878253
vt 0.537214 0.878253
vt 0.518607 0.878253
vt 0.444179 0.896860
vt 0.537214 0.859645
vt 0.537214 0.878253
vt 0.518607 0.878253
vt 0.537214 0.859645
vt 0.537214 0.859645
vt 0.555821 0.859645
vt 0.555821 0.878253
vt 0.537214 0.878253
vt 0.555821 0.878253
vt 0.518607 0.841039
vt 0.537214 0.878253
vt 0.555821 0.878253
vt 0.555821 0.896860
vt 0.537214 0.896860
vt 0.518607 0.915467
vt 0.518607 0.934074
vt 0.537214 0.896860
vt 0.537214 0.896860
vt 0.518607 0.896860
vt 0.518607 0.915467
vt 0.207185 0.144051
vt 0.200591 0.155473
vt 0.213780 0.155473
vt 0.193996 0.166895
vt 0.187402 0.155473
vt 0.180807 0.166895
vt 0.101673 0.144051
vt 0.095079 0.155473
vt 0.108268 0.155473
vt 0.128051 0.144051
vt 0.121457 0.155473
vt 0.134646 0.155473
vt 0.154429 0.144051
vt 0.147835 0.155473
vt 0.161024 0.155473
vt 0.187402 0.178317
vt 0.220374 0.166895
vt 0.207185 0.166895
vt 0.213780 0.178317
vt 0.114862 0.166895
vt 0.101673 0.166895
vt 0.108268 0.178317
vt 0.141240 0.166895
vt 0.128051 0.166895
vt 0.134646 0.178317
vt 0.167618 0.166895
vt 0.154429 0.166895
vt 0.161024 0.178317
vt 0.200591 0.178317
vt 0.226969 0.178317
vt 0.121457 0.178317
vt 0.147835 0.178317
vt 0.174213 0.178317
vt 0.207185 0.189739
vt 0.193996 0.189739
vt 0.200591 0.201161
vt 0.233563 0.189739
vt 0.220374 0.189739
vt 0.226969 0.201161
vt 0.134646 0.201161
vt 0.128051 0.189739
vt 0.128051 0.189739
vt 0.134646 0.201161
vt 0.154429 0.189739
vt 0.141240 0.189739
vt 0.147835 0.201161
vt 0.167618 0.189739
vt 0.174213 0.201161
vt 0.174213 0.201161
vt 0.167618 0.189739
vt 0.161024 0.201161
vt 0.167618 0.212583
vt 0.141240 0.212583
vt 0.121457 0.201161
vt 0.108268 0.201161
vt 0.114862 0.212583
vt 0.121457 0.178317
vt 0.226969 0.201161
vt 0.233563 0.189739
vt 0.213780 0.201161
vt 0.220374 0.212583
vt 0.187402 0.201161
vt 0.193996 0.212583
vt 0.193996 0.189739
vt 0.187402 0.201161
vt 0.187402 0.178317
vt 0.108268 0.178317
vt 0.101673 0.189739
vt 0.101673 0.189739
vt 0.121457 0.201161
vt 0.108268 0.201161
vt 0.174213 0.178317
vt 0.095079 0.178317
vt 0.088484 0.166895
vt 0.174213 0.155473
vt 0.180807 0.144051
vt 0.121457 0.178317
vt 0.128051 0.189739
vt 0.226969 0.201161
vt 0.233563 0.189739
vt 0.101673 0.189739
vt 0.108268 0.178317
vt 0.121457 0.201161
vt 0.108268 0.201161
vt 0.134646 0.201161
vt 0.114862 0.189739
vt 0.180807 0.189739
vt 0.902707 0.155557
vt 0.893947 0.170731
vt 0.911467 0.170731
vt 0.885187 0.155557
vt 0.876427 0.170731
vt 0.832627 0.155557
vt 0.823867 0.170731
vt 0.841387 0.170731
vt 0.850147 0.155557
vt 0.858907 0.170731
vt 0.867667 0.155557
vt 0.885187 0.185903
vt 0.902707 0.185903
vt 0.832627 0.185903
vt 0.850147 0.185903
vt 0.867667 0.185903
vt 0.920227 0.185903
vt 0.893947 0.201077
vt 0.911467 0.201077
vt 0.841387 0.201077
vt 0.858907 0.201077
vt 0.876427 0.201077
vt 0.902707 0.155557
vt 0.893947 0.170731
vt 0.911467 0.170731
vt 0.885187 0.155557
vt 0.876427 0.170731
vt 0.832627 0.155557
vt 0.823867 0.170731
vt 0.841387 0.170731
vt 0.850147 0.155557
vt 0.858907 0.170731
vt 0.867667 0.155557
vt 0.885187 0.185903
vt 0.902707 0.185903
vt 0.832627 0.185903
vt 0.850147 0.185903
vt 0.867667 0.185903
vt 0.920227 0.185903
vt 0.893947 0.201077
vt 0.911467 0.201077
vt 0.841387 0.201077
vt 0.858907 0.201077
vt 0.876427 0.201077
vt 0.902707 0.155557
vt 0.893947 0.170731
vt 0.911467 0.170731
vt 0.885187 0.155557
vt 0.876427 0.170731
vt 0.832627 0.155557
vt 0.823867 0.170731
vt 0.841387 0.170731
vt 0.850147 0.155557
vt 0.858907 0.170731
vt 0.867667 0.155557
vt 0.885187 0.185903
vt 0.902707 0.185903
vt 0.832627 0.185903
vt 0.850147 0.185903
vt 0.867667 0.185903
vt 0.920227 0.185903
vt 0.893947 0.201077
vt 0.911467 0.201077
vt 0.841387 0.201077
vt 0.858907 0.201077
vt 0.876427 0.201077
vt 0.902707 0.155557
vt 0.893947 0.170731
vt 0.911467 0.170731
vt 0.885187 0.155557
vt 0.876427 0.170731
vt 0.832627 0.155557
vt 0.823867 0.170731
vt 0.841387 0.170731
vt 0.850147 0.155557
vt 0.858907 0.170731
vt 0.867667 0.155557
vt 0.885187 0.185903
vt 0.902707 0.185903
vt 0.832627 0.185903
vt 0.850147 0.185903
vt 0.867667 0.185903
vt 0.920227 0.185903
vt 0.893947 0.201077
vt 0.911467 0.201077
vt 0.841387 0.201077
vt 0.858907 0.201077
vt 0.876427 0.201077
vt 0.902707 0.155557
vt 0.893947 0.170731
vt 0.911467 0.170731
vt 0.885187 0.155557
vt 0.876427 0.170731
vt 0.832627 0.155557
vt 0.823867 0.170731
vt 0.841387 0.170731
vt 0.850147 0.155557
vt 0.858907 0.170731
vt 0.867667 0.155557
vt 0.885187 0.185903
vt 0.902707 0.185903
vt 0.832627 0.185903
vt 0.850147 0.185903
vt 0.867667 0.185903
vt 0.920227 0.185903
vt 0.893947 0.201077
vt 0.911467 0.201077
vt 0.841387 0.201077
vt 0.858907 0.201077
vt 0.876427 0.201077
vn -0.8856 -0.0190 0.4641
vn -0.4641 -0.0190 -0.8856
vn 0.8856 -0.0190 -0.4641
vn 0.4641 -0.0190 0.8856
vn 0.0000 -1.0000 0.0000
vn -0.5071 -0.0672 0.8593
vn -0.3579 -0.3517 0.8650
vn 0.8827 0.0441 -0.4679
vn -0.8827 0.0441 0.4679
vn -0.8866 -0.2355 -0.3981
vn -0.7089 0.3901 -0.5877
vn 0.4679 0.0441 0.8827
vn -0.4679 0.0441 -0.8827
vn -0.1329 0.8734 -0.4685
vn 0.8914 0.2681 0.3653
vn -0.5667 0.2681 0.7791
vn 0.5455 -0.2355 -0.8044
vn -0.2904 0.9476 0.1329
vn 0.6647 0.4520 0.5949
vn 0.3196 0.3777 -0.8690
vn -0.7030 -0.4285 -0.5676
vn 0.1329 0.8734 0.4685
vn -0.8931 0.1522 -0.4234
vn 0.8844 -0.0840 0.4590
vn 0.5327 0.1350 -0.8355
vn 0.4685 0.8734 -0.1329
vn 0.7325 -0.3801 0.5647
vn 0.3628 -0.3106 -0.8786
vn -0.3356 0.3217 0.8854
vn 0.1861 -0.9692 0.1615
vn 0.3356 -0.8982 0.2839
vn 0.1089 -0.9904 0.0849
vn 0.1093 -0.9940 0.0016
vn 0.1219 -0.9925 -0.0069
vn 0.9102 0.3240 0.2580
vn 0.0912 -0.5372 0.8385
vn -0.9356 -0.2945 0.1948
vn -0.3182 -0.3817 -0.8678
vn 0.5649 -0.3730 -0.7360
vn 0.7008 0.5228 0.4854
vn -0.1447 -0.2249 0.9636
vn -0.9838 -0.1792 0.0108
vn -0.3088 -0.3511 -0.8840
vn 0.6998 0.3897 -0.5987
vn 0.2947 0.9037 0.3105
vn -0.4532 0.8151 0.3607
vn 0.0829 0.5248 -0.8472
vn 0.0539 0.9871 0.1509
vn -0.7885 0.5405 -0.2935
vn -0.1393 0.9808 -0.1364
vn -0.1480 0.9820 -0.1176
vn -0.1432 0.9711 -0.1909
vn 0.0477 0.9870 -0.1533
vn 0.1200 0.9831 0.1386
vn -0.2775 0.9333 -0.2280
vn -0.0101 0.9993 0.0359
vn -0.6330 -0.2272 -0.7401
vn 0.3696 0.5511 0.7481
vn -0.1143 0.8967 -0.4276
vn -0.2746 0.9461 0.1716
vn -0.0865 0.8295 0.5517
vn -0.1356 0.9021 -0.4096
vn 0.0487 0.9542 -0.2952
vn -0.3505 0.3847 0.8539
vn 0.4616 0.0951 0.8820
vn 0.4570 0.7247 -0.5157
vn 0.4238 0.7362 -0.5277
vn -0.3353 0.0476 -0.9409
vn -0.4902 0.3090 -0.8150
vn -0.8030 -0.5352 0.2622
vn 0.0745 0.0893 0.9932
vn 0.5290 0.8222 -0.2100
vn -0.5355 0.3639 0.7621
vn -0.1585 -0.0686 0.9850
vn -0.0437 0.0611 0.9972
vn 0.5754 0.6343 0.5164
vn 0.6382 0.6043 0.4770
vn 0.9851 -0.1713 0.0151
vn 0.1886 0.4765 -0.8587
vn 0.2811 -0.1157 -0.9527
vn -0.1321 -0.5677 -0.8126
vn -0.6552 0.0389 -0.7544
vn -0.5836 -0.2615 -0.7688
vn -0.6449 -0.4254 -0.6349
vn -0.5548 0.3397 0.7595
vn -0.5410 0.4423 0.7154
vn -0.0798 -0.0443 0.9958
vn 0.1770 -0.1267 0.9760
vn 0.1932 -0.3317 0.9234
vn 0.3540 -0.6078 0.7108
vn 0.0712 0.0111 -0.9974
vn 0.9143 0.3669 0.1717
vn 0.9551 0.0915 -0.2818
vn 0.4188 -0.8880 -0.1897
vn 0.1294 -0.9901 -0.0537
vn -0.1080 -0.9190 -0.3791
vn 0.0660 -0.8945 -0.4421
vn 0.0735 -0.9961 -0.0497
vn 0.1571 -0.9816 -0.1082
vn 0.1544 -0.9642 0.2157
vn 0.0509 -0.9907 0.1265
vn 0.1043 -0.7794 0.6177
vn 0.4336 -0.8881 -0.1525
vn 0.3006 -0.9400 0.1614
vn 0.1842 -0.9687 0.1664
vn 0.1090 -0.7791 0.6173
vn 0.2096 -0.9310 0.2989
vn 0.3008 -0.8851 0.3552
vn -0.9288 -0.2049 -0.3087
vn 0.8860 0.3089 0.3459
vn 0.5919 0.2123 0.7775
vn 0.7015 0.2894 -0.6512
vn -0.7298 -0.1550 0.6659
vn -0.1699 0.0583 -0.9837
vn -0.2529 0.3743 -0.8921
vn 0.5387 0.4133 -0.7342
vn 0.8941 0.3945 0.2120
vn -0.9604 0.2540 -0.1143
vn -0.6620 0.2487 0.7071
vn 0.5935 0.3438 0.7277
vn -0.7602 0.6492 -0.0226
vn 0.0017 0.5993 0.8005
vn -0.1189 0.2284 -0.9663
vn 0.8876 0.2740 0.3703
vn 0.9606 0.1703 -0.2197
vn 0.1247 0.5269 -0.8407
vn 0.2753 -0.4545 0.8472
vn 0.8908 -0.4545 0.0000
vn -0.7206 -0.4545 0.5236
vn -0.7206 -0.4545 -0.5236
vn 0.2753 -0.4545 -0.8472
vn 0.9972 -0.0742 0.0000
vn 0.3082 -0.0742 0.9484
vn -0.8068 -0.0742 0.5862
vn -0.8068 -0.0742 -0.5862
vn 0.3082 -0.0742 -0.9484
vn 0.8068 0.0742 0.5862
vn -0.3082 0.0742 0.9484
vn -0.9972 0.0742 0.0000
vn -0.3082 0.0742 -0.9484
vn 0.8068 0.0742 -0.5862
vn 0.7206 0.4545 0.5236
vn -0.2753 0.4545 0.8472
vn -0.8908 0.4545 0.0000
vn -0.2753 0.4545 -0.8472
vn 0.7206 0.4545 -0.5236
vn 0.2753 -0.9449 -0.1772
vn 0.8908 -0.1374 -0.4332
vn -0.7206 -0.6365 -0.2750
vn -0.7206 0.3617 -0.5915
vn 0.2753 0.6702 -0.6893
vn 0.9972 -0.0224 -0.0708
vn 0.3082 -0.9265 0.2159
vn -0.8068 -0.5812 0.1064
vn -0.8068 0.5363 -0.2479
vn 0.3082 0.8816 -0.3574
vn 0.8068 -0.5363 0.2479
vn -0.3082 -0.8816 0.3574
vn -0.9972 0.0224 0.0708
vn -0.3082 0.9265 -0.2159
vn 0.8068 0.5812 -0.1064
vn 0.7206 -0.3617 0.5915
vn -0.2753 -0.6702 0.6893
vn -0.8908 0.1374 0.4332
vn -0.2753 0.9449 0.1772
vn 0.7206 0.6365 0.2750
usemtl SelvaTemplada
s off
f 9/1/1 10/2/1 4/3/1 3/4/1
f 13/5/2 14/6/2 8/7/2 7/8/2
f 11/9/3 12/10/3 6/11/3 5/12/3
f 15/13/4 16/14/4 2/15/4 1/16/4
f 18/17/5 11/9/5 5/12/5 15/18/5
f 10/2/6 2/19/6 28/20/6 29/21/6
f 4/3/7 10/2/7 23/22/7 24/23/7
f 13/24/5 7/8/5 11/9/5 18/17/5
f 7/8/8 8/7/8 12/10/8 11/9/8
f 1/25/9 2/19/9 10/2/9 9/1/9
f 3/26/5 13/24/5 18/17/5 9/27/5
f 8/7/10 14/6/10 19/28/10 20/29/10
f 12/10/11 17/30/11 33/31/11 31/32/11
f 9/27/5 18/17/5 15/18/5 1/33/5
f 5/12/12 6/11/12 16/14/12 15/13/12
f 3/4/13 4/3/13 14/6/13 13/5/13
f 20/29/14 19/34/14 22/35/14 21/36/14
f 17/30/15 12/10/15 21/36/15 22/35/15
f 14/37/16 17/30/16 22/35/16 19/34/16
f 12/10/17 8/7/17 20/29/17 21/36/17
f 25/38/18 24/39/18 23/40/18 26/41/18
f 10/42/19 17/30/19 26/41/19 23/40/19
f 17/30/20 14/37/20 25/38/20 26/41/20
f 14/6/21 4/3/21 24/23/21 25/43/21
f 30/44/22 29/45/22 28/46/22 27/47/22
f 17/30/23 10/42/23 29/45/23 30/44/23
f 2/15/24 16/14/24 27/48/24 28/49/24
f 16/50/25 17/30/25 30/44/25 27/47/25
f 31/32/26 33/31/26 34/51/26 32/52/26
f 16/14/27 6/11/27 32/52/27 34/53/27
f 6/11/28 12/10/28 31/32/28 32/52/28
f 17/30/29 16/50/29 34/51/29 33/31/29
f 35/54/30 47/55/30 46/56/30
f 36/57/31 47/58/31 49/59/31
f 35/60/32 46/61/32 51/62/32
f 35/63/33 51/64/33 53/65/33
f 35/66/34 53/67/34 50/68/34
f 36/57/35 49/59/35 56/69/35
f 37/70/36 48/71/36 58/72/36
f 38/73/37 52/74/37 60/75/37
f 39/76/38 54/77/38 62/78/38
f 40/79/39 55/80/39 64/81/39
f 36/57/40 56/69/40 59/82/40
f 37/70/41 58/72/41 61/83/41
f 38/73/42 60/75/42 63/84/42
f 39/76/43 62/78/43 65/85/43
f 40/79/44 64/81/44 57/86/44
f 41/87/45 66/88/45 70/89/45
f 42/90/46 67/91/46 72/92/46
f 73/93/47 43/94/47 76/95/47 79/96/47
f 44/97/48 68/98/48 74/99/48
f 69/100/49 71/101/49 93/102/49 90/103/49
f 71/101/50 74/104/50 45/105/50
f 71/101/51 69/100/51 74/104/51
f 69/100/52 44/97/52 74/104/52
f 74/99/53 73/93/53 45/106/53
f 74/99/54 68/98/54 73/93/54
f 68/98/55 43/94/55 73/93/55
f 73/107/56 72/108/56 45/109/56
f 43/94/57 63/84/57 75/110/57 76/95/57
f 42/90/58 72/92/58 77/111/58 78/112/58
f 72/92/59 70/113/59 45/114/59
f 72/92/60 67/91/60 70/113/60
f 67/91/61 41/87/61 70/113/61
f 70/89/62 71/115/62 45/116/62
f 70/89/63 66/88/63 71/115/63
f 71/115/64 66/88/64 92/117/64 93/118/64
f 66/88/65 56/69/65 91/119/65 92/117/65
f 57/86/66 64/81/66 69/100/66
f 64/81/67 44/97/67 69/100/67
f 65/85/68 62/78/68 68/98/68
f 62/78/69 43/94/69 68/98/69
f 63/84/70 60/75/70 80/120/70 75/110/70
f 60/75/71 42/121/71 78/122/71 80/120/71
f 72/108/72 73/107/72 79/123/72 77/124/72
f 61/83/73 67/91/73 42/90/73
f 61/83/74 58/72/74 67/91/74
f 58/72/75 41/87/75 67/91/75
f 59/82/76 66/88/76 41/87/76
f 59/82/77 56/69/77 66/88/77
f 56/69/78 57/86/78 88/125/78 91/119/78
f 64/81/79 65/85/79 44/97/79
f 64/81/80 55/80/80 65/85/80
f 55/80/81 39/76/81 65/85/81
f 62/78/82 63/84/82 43/94/82
f 62/78/83 54/77/83 63/84/83
f 54/77/84 38/73/84 63/84/84
f 60/75/85 61/126/85 42/121/85
f 60/75/86 52/74/86 61/126/86
f 52/74/87 37/127/87 61/126/87
f 58/72/88 59/82/88 41/87/88
f 58/72/89 48/71/89 59/82/89
f 48/71/90 36/57/90 59/82/90
f 57/86/91 69/100/91 90/103/91 88/125/91
f 56/69/92 49/59/92 57/86/92
f 49/59/93 40/79/93 57/86/93
f 50/68/94 55/80/94 40/79/94
f 50/68/95 53/67/95 55/80/95
f 53/67/96 39/76/96 55/80/96
f 53/65/97 54/77/97 39/76/97
f 53/65/98 51/64/98 54/77/98
f 51/64/99 38/73/99 54/77/99
f 51/62/100 52/74/100 38/73/100
f 51/62/101 46/61/101 52/74/101
f 46/61/102 37/127/102 52/74/102
f 49/59/103 50/128/103 40/79/103
f 49/59/104 47/58/104 50/128/104
f 47/58/105 35/129/105 50/128/105
f 46/56/106 48/71/106 37/70/106
f 46/56/107 47/55/107 48/71/107
f 47/55/108 36/57/108 48/71/108
f 76/95/109 75/110/109 81/130/109 82/131/109
f 78/112/110 77/111/110 84/132/110 85/133/110
f 80/120/111 78/122/111 85/134/111 87/135/111
f 77/124/112 79/123/112 86/136/112 84/137/112
f 75/110/113 80/120/113 87/135/113 81/130/113
f 79/96/114 76/95/114 82/131/114 86/138/114
f 82/131/115 83/139/115 86/136/115
f 86/136/116 83/139/116 84/137/116
f 83/139/117 85/134/117 84/137/117
f 81/130/118 83/139/118 82/131/118
f 81/130/119 87/135/119 83/139/119
f 87/135/120 85/134/120 83/139/120
f 89/140/121 90/103/121 93/102/121
f 92/117/122 89/140/122 93/118/122
f 88/125/123 90/103/123 89/140/123
f 91/119/124 89/140/124 92/117/124
f 91/119/125 88/125/125 89/140/125
f 44/97/126 65/85/126 68/98/126
f 94/141/127 95/142/127 96/143/127
f 95/142/128 94/144/128 99/145/128
f 94/146/129 96/147/129 97/148/129
f 94/149/130 97/148/130 98/150/130
f 94/151/131 98/150/131 99/145/131
f 95/142/132 99/145/132 104/152/132
f 96/143/133 95/142/133 100/153/133
f 97/148/134 96/147/134 101/154/134
f 98/150/135 97/148/135 102/155/135
f 99/145/136 98/150/136 103/156/136
f 95/142/137 104/152/137 100/153/137
f 96/143/138 100/153/138 101/157/138
f 97/148/139 101/154/139 102/155/139
f 98/150/140 102/155/140 103/156/140
f 99/145/141 103/156/141 104/152/141
f 100/153/142 104/152/142 105/158/142
f 101/157/143 100/153/143 105/159/143
f 102/155/144 101/154/144 105/160/144
f 103/156/145 102/155/145 105/161/145
f 104/152/146 103/156/146 105/162/146
f 106/163/127 107/164/127 108/165/127
f 107/164/128 106/166/128 111/167/128
f 106/168/129 108/169/129 109/170/129
f 106/171/130 109/170/130 110/172/130
f 106/173/131 110/172/131 111/167/131
f 107/164/132 111/167/132 116/174/132
f 108/165/133 107/164/133 112/175/133
f 109/170/134 108/169/134 113/176/134
f 110/172/135 109/170/135 114/177/135
f 111/167/136 110/172/136 115/178/136
f 107/164/137 116/174/137 112/175/137
f 108/165/138 112/175/138 113/179/138
f 109/170/139 113/176/139 114/177/139
f 110/172/140 114/177/140 115/178/140
f 111/167/141 115/178/141 116/174/141
f 112/175/142 116/174/142 117/180/142
f 113/179/143 112/175/143 117/181/143
f 114/177/144 113/176/144 117/182/144
f 115/178/145 114/177/145 117/183/145
f 116/174/146 115/178/146 117/184/146
f 118/185/127 119/186/127 120/187/127
f 119/186/128 118/188/128 123/189/128
f 118/190/129 120/191/129 121/192/129
f 118/193/130 121/192/130 122/194/130
f 118/195/131 122/194/131 123/189/131
f 119/186/132 123/189/132 128/196/132
f 120/187/133 119/186/133 124/197/133
f 121/192/134 120/191/134 125/198/134
f 122/194/135 121/192/135 126/199/135
f 123/189/136 122/194/136 127/200/136
f 119/186/137 128/196/137 124/197/137
f 120/187/138 124/197/138 125/201/138
f 121/192/139 125/198/139 126/199/139
f 122/194/140 126/199/140 127/200/140
f 123/189/141 127/200/141 128/196/141
f 124/197/142 128/196/142 129/202/142
f 125/201/143 124/197/143 129/203/143
f 126/199/144 125/198/144 129/204/144
f 127/200/145 126/199/145 129/205/145
f 128/196/146 127/200/146 129/206/146
f 130/207/127 131/208/127 132/209/127
f 131/208/128 130/210/128 135/211/128
f 130/212/129 132/213/129 133/214/129
f 130/215/130 133/214/130 134/216/130
f 130/217/131 134/216/131 135/211/131
f 131/208/132 135/211/132 140/218/132
f 132/209/133 131/208/133 136/219/133
f 133/214/134 132/213/134 137/220/134
f 134/216/135 133/214/135 138/221/135
f 135/211/136 134/216/136 139/222/136
f 131/208/137 140/218/137 136/219/137
f 132/209/138 136/219/138 137/223/138
f 133/214/139 137/220/139 138/221/139
f 134/216/140 138/221/140 139/222/140
f 135/211/141 139/222/141 140/218/141
f 136/219/142 140/218/142 141/224/142
f 137/223/143 136/219/143 141/225/143
f 138/221/144 137/220/144 141/226/144
f 139/222/145 138/221/145 141/227/145
f 140/218/146 139/222/146 141/228/146
f 142/229/147 143/230/147 144/231/147
f 143/230/148 142/232/148 147/233/148
f 142/234/149 144/235/149 145/236/149
f 142/237/150 145/236/150 146/238/150
f 142/239/151 146/238/151 147/233/151
f 143/230/152 147/233/152 152/240/152
f 144/231/153 143/230/153 148/241/153
f 145/236/154 144/235/154 149/242/154
f 146/238/155 145/236/155 150/243/155
f 147/233/156 146/238/156 151/244/156
f 143/230/157 152/240/157 148/241/157
f 144/231/158 148/241/158 149/245/158
f 145/236/159 149/242/159 150/243/159
f 146/238/160 150/243/160 151/244/160
f 147/233/161 151/244/161 152/240/161
f 148/241/162 152/240/162 153/246/162
f 149/245/163 148/241/163 153/247/163
f 150/243/164 149/242/164 153/248/164
f 151/244/165 150/243/165 153/249/165
f 152/240/166 151/244/166 153/250/166
